<?xml version="1.0" standalone="no"?>
<!DOCTYPE svg PUBLIC "-//W3C//DTD SVG 1.1//EN" "http://www.w3.org/Graphics/SVG/1.1/DTD/svg11.dtd" >
<svg xmlns="http://www.w3.org/2000/svg">
<metadata>
This is a custom SVG webfont generated by Font Squirrel.
Copyright   : c 19992011 Typodermic Fonts See attached license agreement for more information If license is missing visit typodermicfontscom
Designer    : Ray Larabie
Foundry     : Ray Larabie
</metadata>
<defs>
<font id="DeftoneStylusRegular" horiz-adv-x="876" >
<font-face units-per-em="2048" ascent="1640" descent="-408" />
<missing-glyph horiz-adv-x="481" />
<glyph unicode=" "  horiz-adv-x="481" />
<glyph unicode="&#x09;" horiz-adv-x="481" />
<glyph unicode="&#xa0;" horiz-adv-x="481" />
<glyph unicode="!" horiz-adv-x="677" d="M307 90q0 68 82 120t176 52q53 0 95 -25.5t42 -64.5q0 -72 -86 -122t-170 -50q-59 0 -99 25.5t-40 64.5zM496 475l448 1049h356l-532 -1190z" />
<glyph unicode="&#x22;" horiz-adv-x="739" d="M567 1104q0 18 17.5 73.5t19.5 102.5q8 137 63.5 204.5t139.5 67.5q45 0 70.5 -22.5t25.5 -59.5q0 -20 -6 -40.5t-20.5 -43t-24.5 -37t-31 -39.5l-28 -36q-39 -51 -71 -100.5t-43 -66.5t-26.5 -27.5t-42.5 -10.5q-43 0 -43 35zM936 1104q0 18 17.5 73.5t19.5 102.5 q8 137 63.5 204.5t139.5 67.5q45 0 70.5 -22.5t25.5 -59.5q0 -20 -6 -40.5t-20.5 -43t-25 -37t-30.5 -39.5l-29 -36q-39 -51 -70.5 -100.5t-43 -66.5t-26.5 -27.5t-42 -10.5q-43 0 -43 35z" />
<glyph unicode="#" horiz-adv-x="888" d="M479 762l74 162h137l72 163h-137l73 162h138l69 152h137l-67 -152h106l70 152h147l-67 -152h164l-72 -162h-166l-72 -163h166l-73 -162h-164l-72 -160h-147l67 160h-102l-74 -160h-137l72 160h-142zM831 924h105l72 163h-103z" />
<glyph unicode="$" horiz-adv-x="937" d="M391 739q0 12 4 33l140 86q-8 -25 -9 -49q0 -98 60.5 -153.5t175.5 -55.5q82 0 139 42t57 114q0 80 -116 127q-150 61 -150 192q0 86 70 158q94 94 328 94l61 135h164l-58 -135q106 0 246 -24l-151 -121q-106 20 -181 20q-63 0 -111 -32.5t-48 -77.5q0 -41 20.5 -64.5 t102.5 -64.5q39 -20 54 -28.5t40.5 -29t35 -45t9.5 -57.5q0 -43 -17 -90q-35 -109 -140 -172.5t-247 -75.5l-59 -143h-168l62 139q-133 2 -223.5 84.5t-90.5 193.5z" />
<glyph unicode="%" horiz-adv-x="1388" d="M197 -6l1353 1372h193l-1362 -1372h-184zM530 889q0 43 41 133l76 170q49 109 118 145.5t193 36.5q37 0 61.5 -2t59.5 -12t53.5 -36t18.5 -64q0 -43 -29 -113l-59 -133q-61 -133 -130 -182.5t-210 -49.5q-106 0 -149.5 20.5t-43.5 86.5zM733 903q0 -12 15 -12q43 0 63 39 l135 297q4 12 4 16q0 12 -18 12q-49 0 -58 -28l-135 -301q-6 -17 -6 -23zM844 102q0 43 41 134l76 170q49 109 117.5 145.5t193.5 36.5q37 0 61.5 -2t59 -12.5t53 -36t18.5 -64.5q0 -43 -28 -113l-60 -133q-61 -133 -129.5 -182t-210.5 -49q-106 0 -149 20t-43 86zM1047 117 q0 -12 14 -13q45 0 63 39l136 297q4 12 4 17q0 12 -19 12q-49 0 -57 -29l-135 -301q-6 -16 -6 -22z" />
<glyph unicode="&#x26;" horiz-adv-x="1083" d="M223 252q0 158 160 343t381 232q-166 55 -166 222q0 223 177 352t439 129q164 0 224.5 -28.5t60.5 -104.5q0 -43 -6 -64l-348 -127q20 27 38.5 73t18.5 64q0 31 -67 31q-66 0 -140.5 -107.5t-74.5 -219.5q0 -84 22.5 -127t83.5 -74l76 162h338l-72 -162h92l-51 -115h-92 l-217 -487q-6 -12 -6 -21q0 -16 20 -16q70 0 180.5 77.5t143.5 147.5l61 -80q-53 -123 -249.5 -240.5t-356.5 -117.5q-43 0 -82 15.5t-49 31.5q-80 -47 -238 -47q-72 0 -118 8t-92 32.5t-68.5 79t-22.5 138.5zM557 229q0 -92 107 -92q25 0 69 4q0 47 23 92l221 498 q-199 -70 -309.5 -220.5t-110.5 -281.5z" />
<glyph unicode="'" horiz-adv-x="368" d="M567 1104q0 18 17.5 73.5t19.5 102.5q8 137 63.5 204.5t139.5 67.5q45 0 70.5 -22.5t25.5 -59.5q0 -20 -6 -40.5t-20.5 -43t-24.5 -37t-31 -39.5l-28 -36q-39 -51 -71 -100.5t-43 -66.5t-26.5 -27.5t-42.5 -10.5q-43 0 -43 35z" />
<glyph unicode="(" horiz-adv-x="692" d="M244 33q0 311 145.5 650t389 623.5t532.5 454.5q27 16 37 17q12 0 12 -15q0 -10 -17 -30q-231 -205 -446 -540t-345 -688t-130 -609q0 -137 37 -234l2 -6q2 -4 2 -10q0 -29 -33 -29q-14 0 -33 14q-153 140 -153 402z" />
<glyph unicode=")" horiz-adv-x="692" d="M-117 -369q0 12 19 31q354 311 636.5 876.5t282.5 960.5q0 131 -35 234l-2 4q-2 6 -2 10q0 31 31 31q18 0 35 -17q154 -137 153 -401q0 -471 -312 -968.5t-757 -760.5q-25 -14 -34 -14q-15 0 -15 14z" />
<glyph unicode="*" horiz-adv-x="1222" d="M492 465q0 88 145 168q63 35 206.5 72.5t166.5 50.5q-25 31 -127 55q-86 23 -132 63.5t-46 90.5q0 57 59 110t119 53q68 0 98.5 -58t44.5 -142t35 -113q23 61 22 135v33q0 145 71 233.5t157 88.5q76 0 75.5 -72t-127 -239t-129.5 -173q82 61 156 135q174 172 297 172 q72 0 72 -71q0 -86 -148 -170q-55 -31 -208.5 -73t-180.5 -58q35 -29 127 -49q172 -45 172 -152q0 -59 -57 -110.5t-117 -51.5q-121 0 -139 166q-16 104 -33 129q-14 -43 -14 -106v-50q0 -139 -69.5 -225t-153.5 -86q-74 0 -74 74q0 55 51 136t117.5 161t79.5 100 q-57 -37 -150 -129q-172 -170 -293 -170q-73 0 -73 72z" />
<glyph unicode="+" horiz-adv-x="978" d="M354 502l15 147h346l41 441h125l-39 -441h346l-14 -147h-347l-34 -426h-127l36 426h-348z" />
<glyph unicode="," horiz-adv-x="634" d="M356 86q0 70 83 120t175 50q57 0 97.5 -24.5t40.5 -73.5q0 -90 -111 -178q-100 -78 -250 -115l-14 45q111 29 139 90q-29 -4 -41 -4q-119 0 -119 90z" />
<glyph unicode="-" horiz-adv-x="536" d="M379 731l51 115h440l-49 -115h-442z" />
<glyph unicode="." horiz-adv-x="632" d="M356 84q0 70 83 121t173 51q55 0 96.5 -24.5t41.5 -63.5q0 -74 -86 -124t-170 -50q-57 0 -97.5 24.5t-40.5 65.5z" />
<glyph unicode="/" horiz-adv-x="858" d="M115 -270l1185 1935h199l-1184 -1935h-200z" />
<glyph unicode="0" horiz-adv-x="1112" d="M270 170q0 84 70 242l143 317q88 195 212 260.5t354 65.5q66 0 108.5 -4t103 -20.5t92 -58.5t31.5 -108q0 -78 -55 -205l-108 -247q-104 -242 -230.5 -330t-386.5 -88q-186 0 -260 33.5t-74 142.5zM604 197q0 -45 51 -45q98 0 140 88l256 567q6 10 6 29q0 43 -60 43 q-98 0 -131 -72l-252 -567q-10 -23 -10 -43z" />
<glyph unicode="1" horiz-adv-x="770" d="M299 0l348 786q10 27 10 43q0 59 -75 60h-41q-70 0 -70 78q0 57 44 72.5t181 15.5q186 0 258 -32t72 -118q0 -59 -45 -166l-328 -739h-354z" />
<glyph unicode="2" horiz-adv-x="1056" d="M145 0l109 244q72 160 132 239.5t140 110.5q76 29 166 58.5t136 45t90.5 36t61.5 44t17 56.5q0 37 -39.5 53t-138.5 16q-29 0 -74 -6t-73 -6q-41 0 -63.5 21.5t-22.5 52.5q0 61 61.5 75.5t243.5 14.5q236 0 336 -45t100 -150q0 -125 -79 -214t-304 -167 q-242 -84 -303 -122t-102 -134l-23 -53h533l-74 -170h-830z" />
<glyph unicode="3" horiz-adv-x="1069" d="M137 0l195 154q31 -4 90 -4q395 0 395 186q0 55 -33.5 80.5t-124.5 42.5q-76 14 -75 82q0 53 33.5 74.5t97.5 27.5q133 16 200.5 53t67.5 107q0 100 -195 100q-31 0 -74.5 -6t-72.5 -6q-41 0 -63.5 21.5t-22.5 52.5q0 61 61.5 75.5t243.5 14.5q258 0 351.5 -52.5 t93.5 -156.5q0 -94 -87.5 -170t-244.5 -107q164 -43 164 -198q0 -111 -53.5 -188t-156 -116.5t-221 -56t-278.5 -16.5q-250 0 -291 6z" />
<glyph unicode="4" horiz-adv-x="1150" d="M274 412l285 637q111 -12 178.5 -64.5t67.5 -124.5q0 -35 -17 -74l-106 -237h197l26 53q68 150 157 206t294 56h4l-137 -315h149l-61 -137h-152l-182 -412h-342l178 412h-539z" />
<glyph unicode="5" horiz-adv-x="1128" d="M172 0l76 170q131 -4 196 -4q217 0 312.5 42t95.5 177q0 113 -231 113q-131 0 -240 -31l332 582h774l-195 -154h-323l-156 -246q96 10 172 10q102 0 173 -57t71 -184q0 -133 -73 -223.5t-203 -131t-254 -55t-281 -14.5q-123 0 -246 6z" />
<glyph unicode="6" horiz-adv-x="1105" d="M276 184q0 88 50 199l163 367q80 180 225.5 242.5t395.5 62.5q143 0 291 -17l-197 -143q-29 8 -104 8q-221 0 -293 -164l-37 -80q92 35 191 35q123 0 194.5 -57t71.5 -158q0 -133 -52.5 -231t-143.5 -151.5t-195.5 -78t-223.5 -24.5q-178 0 -257 44t-79 146zM594 231 q0 -61 72 -61q111 0 177 80t66 168q0 80 -121 80q-45 0 -94 -6l-78 -173q-22 -55 -22 -88z" />
<glyph unicode="7" horiz-adv-x="1046" d="M158 0q399 418 807 786q31 29 30 60q0 43 -73 43h-293q-66 0 -66 78q0 82 74 82h639q152 0 151 -109q0 -78 -81 -154q-399 -356 -781 -786h-407z" />
<glyph unicode="8" horiz-adv-x="1128" d="M293 258q0 117 95 217t276 150q-72 45 -72 135q0 139 127 217t319 78q313 0 314 -217q0 -68 -57.5 -133.5t-149.5 -90.5q115 -49 115 -190q0 -203 -168 -316.5t-418 -113.5q-190 0 -285.5 60.5t-95.5 203.5zM614 258q0 -47 21.5 -67.5t75.5 -20.5q98 0 159.5 73.5 t61.5 168.5q0 80 -103 80q-86 0 -150.5 -65t-64.5 -169zM842 748q0 -61 73 -62q63 0 113.5 35t50.5 92q0 70 -75 70q-66 0 -114 -41t-48 -94z" />
<glyph unicode="9" horiz-adv-x="1073" d="M246 6l196 187q53 -6 99 -7q127 0 207.5 55.5t128.5 190.5q-92 -35 -246 -35q-231 0 -232 162q0 225 184.5 360.5t460.5 135.5q322 0 322 -181q0 -57 -37 -143l-196 -434q-86 -186 -238 -244.5t-403 -58.5q-123 0 -246 12zM711 649q0 -31 30.5 -44t116.5 -13q43 0 92 8 l41 96q37 94 37 125q0 59 -70 60q-96 0 -171.5 -68t-75.5 -164z" />
<glyph unicode=":" horiz-adv-x="632" d="M356 84q0 70 83 121t173 51q55 0 96.5 -24.5t41.5 -63.5q0 -74 -86 -124t-170 -50q-57 0 -97.5 24.5t-40.5 65.5zM643 702q0 70 82 120t174 50q55 0 96 -24.5t41 -63.5q0 -72 -85 -122t-171 -50q-55 0 -96 24.5t-41 65.5z" />
<glyph unicode=";" horiz-adv-x="634" d="M356 86q0 70 83 120t175 50q57 0 97.5 -24.5t40.5 -73.5q0 -90 -111 -178q-100 -78 -250 -115l-14 45q111 29 139 90q-29 -4 -41 -4q-119 0 -119 90zM643 702q0 70 82 120t174 50q55 0 96 -24.5t41 -63.5q0 -72 -85 -122t-171 -50q-55 0 -96 24.5t-41 65.5z" />
<glyph unicode="&#x3c;" horiz-adv-x="806" d="M354 530l4 78l656 365l-10 -156l-469 -248l421 -247l-12 -156z" />
<glyph unicode="=" horiz-adv-x="952" d="M354 336l19 141h757l-20 -141h-756zM387 682l16 139h756l-14 -139h-758z" />
<glyph unicode="&#x3e;" horiz-adv-x="806" d="M354 166l13 153l467 248l-420 248l10 158l590 -365l-4 -78z" />
<glyph unicode="?" horiz-adv-x="1132" d="M377 90q0 66 82 119t174 53q55 0 96 -24.5t41 -65.5q0 -72 -85 -122t-169 -50q-57 0 -98 24.5t-41 65.5zM580 457q35 106 54 152t68.5 104.5t120 102.5t207.5 120q215 119 268 201q61 98 62 166q0 74 -92 73q-47 0 -151.5 -25.5t-174.5 -25.5q-100 0 -164.5 35t-64.5 102 q0 29 17.5 48.5t43.5 19.5q29 0 51 -21q51 -33 138 -32q37 0 175 26.5t300 26.5q270 0 270 -191q0 -59 -63 -182q-139 -252 -418 -373q-209 -88 -271.5 -159.5t-119.5 -276.5z" />
<glyph unicode="@" horiz-adv-x="1400" d="M104 -203q0 100 66 238l305 678q80 174 203 257t330 83h483q121 0 182.5 -53.5t61.5 -147.5q0 -78 -45 -184l-158 -353q-63 -145 -159.5 -222t-201.5 -77q-63 0 -96 23.5t-35 56.5q-94 -82 -196 -82q-78 0 -122 34t-44 99q0 96 84 271q102 207 189 275.5t210 68.5 q86 0 137 -68l17 41h176l-213 -477q-12 -29 -12 -33q0 -27 30 -26q72 0 156 190l129 281q33 78 33 133q0 129 -164 129h-477q-84 0 -125 -43t-117 -211l-280 -619q-43 -94 -43 -165q0 -143 200 -144q102 0 246 35l20 -143q-143 -49 -368 -50q-188 0 -295 44t-107 161z M907 166q0 -29 19 -29q35 0 75 74l177 397q2 4 2 8q0 25 -33 25q-23 0 -40 -18.5t-44 -73.5l-100 -225q-56 -123 -56 -158z" />
<glyph unicode="A" horiz-adv-x="1185" d="M244 143q0 61 127 353l325 731q70 158 180.5 230.5t286.5 72.5q102 0 167 -40t85 -95l55 123h306l-574 -1285q-2 -6 -2 -12q0 -14 23 -14q72 0 179 76.5t142 148.5l62 -84q-53 -121 -253 -237.5t-362 -116.5q-135 0 -135 143q0 16 4 45q-193 -188 -459 -188 q-157 -1 -157 149zM623 227q0 -49 41 -49q68 0 159.5 88t128.5 166l312 698q33 68 32 140q0 57 -24.5 92t-69.5 35q-41 0 -69.5 -29t-67.5 -115l-352 -784q-90 -205 -90 -242z" />
<glyph unicode="B" horiz-adv-x="1142" d="M162 0l581 1303q10 25 11 38q0 43 -84 43h-21q-63 0 -63 56q0 47 40 68.5t148 21.5q268 0 324 -82q123 82 291 82q311 0 311 -205q0 -131 -150.5 -272.5t-363.5 -225.5q76 -25 123 -82t47 -133q0 -287 -253 -452.5t-632 -165.5q-270 0 -309 6zM592 172q12 -8 37 -8 q121 0 255 144.5t134 285.5q0 109 -158 180zM899 860q215 61 297 158q78 96 112.5 160.5t34.5 130.5q0 80 -94 80q-113 0 -168 -125z" />
<glyph unicode="C" horiz-adv-x="1048" d="M279 184q0 90 106 332l293 653q88 195 224 278t355 83q160 0 229.5 -30t69.5 -103q0 -33 -8 -64l-346 -127q18 27 36.5 73t18.5 64q0 31 -65 31q-41 0 -67.5 -17.5t-49.5 -70.5l-405 -909q-80 -180 -80 -203q0 -35 74 -35q186 0 371.5 87t238.5 206l63 -80 q-51 -111 -209 -211q-229 -147 -479 -147q-55 0 -90 1t-94 11t-95 28.5t-63.5 57.5t-27.5 92z" />
<glyph unicode="D" horiz-adv-x="1150" d="M162 0l581 1303q10 25 11 38q0 43 -84 43h-21q-63 0 -63 56q0 47 40 68.5t148 21.5q268 0 324 -82q131 82 291 82q133 0 222 -49t89 -123q0 -45 -55 -168l-312 -686q-121 -268 -310 -389t-499 -121q-313 0 -362 6zM592 168q12 -4 37 -4q211 0 409 442l252 553 q53 119 53 150q0 80 -94 80q-117 0 -168 -125z" />
<glyph unicode="E" horiz-adv-x="1091" d="M293 184q0 205 156.5 400.5t384.5 242.5q-168 57 -168 222q0 223 177 352t441 129q162 0 223.5 -28.5t61.5 -104.5q0 -37 -8 -64l-349 -127q20 27 39 72t19 65q0 31 -66 31q-68 0 -141.5 -106.5t-73.5 -220.5q0 -127 160 -187l-39 -86q-127 -41 -210 -100.5t-157 -147.5 q-59 -70 -95 -153.5t-36 -143.5q0 -92 121 -92q150 0 325 89t228 206l64 -80q-39 -92 -174 -188q-244 -170 -512 -170q-53 0 -89 1t-95.5 11t-95.5 28.5t-63.5 57.5t-27.5 92z" />
<glyph unicode="F" horiz-adv-x="1333" d="M258 139q0 78 61 223q82 186 204 309.5t311 174.5l174 430q16 43 16 63q0 51 -76 52h-84q-53 0 -53 65q0 68 61 68h1080q-109 -115 -138.5 -159t-58.5 -114h-147q37 98 80 140h-322q0 -2 1 -10.5t1 -14.5q0 -80 -65 -242l-119 -278h336l-52 -115h-338l-178 -385 q-90 -195 -193.5 -273.5t-260.5 -78.5q-240 0 -240 145zM442 188q0 -23 25 -22q39 0 65 39q98 143 228 461q-141 -49 -268 -336q-50 -109 -50 -142z" />
<glyph unicode="G" horiz-adv-x="1112" d="M313 -203q0 139 125 240.5t334 150.5q16 27 53 107q-94 -53 -217 -53q-125 0 -192.5 49t-67.5 139q0 86 55 211l244 553q80 184 217 260t355 76q160 0 229.5 -30t69.5 -103q0 -33 -9 -64l-348 -127q20 27 39 72t19 65q0 31 -66 31q-41 0 -67.5 -17.5t-49.5 -70.5 l-123 -272l439 -242q-76 -195 -258 -569q129 14 217 73q123 80 155 156l64 -80q-49 -106 -207 -208.5t-309 -131.5q-158 -395 -469 -395q-104 0 -168 47t-64 133zM492 -182q0 -33 45 -33q31 0 55 31q68 90 102 200q-88 -25 -145 -82t-57 -116zM649 420q0 -43 56 -43 q90 0 180 59q94 186 164 375l-183 98l-202 -434q-15 -37 -15 -55z" />
<glyph unicode="H" horiz-adv-x="1200" d="M164 0l577 1303q10 25 11 38q0 43 -84 43h-21q-63 0 -63 56q0 47 40 68.5t148 21.5q170 0 255 -32t85 -112q0 -49 -25 -104l-194 -436h254l303 678h340l-580 -1291q-2 -6 -2 -12q0 -14 25 -14q72 0 180.5 76.5t138.5 148.5l64 -84q-53 -121 -253 -237.5t-362 -116.5 q-66 0 -112.5 43t-46.5 100q0 29 16 62l238 532h-252l-326 -731h-354z" />
<glyph unicode="I" horiz-adv-x="565" d="M164 0l577 1303q10 25 11 38q0 43 -84 43h-21q-63 0 -63 56q0 47 40 68.5t148 21.5q170 0 255 -32t85 -112q0 -49 -25 -104l-569 -1282h-354z" />
<glyph unicode="J" horiz-adv-x="751" d="M-23 -238q0 49 29 135.5t86.5 192t131 204.5t177 179t209.5 109l316 721q10 25 10 38q0 43 -82 43h-172q-68 0 -68 60q0 51 54 67q66 18 270 19q182 0 271 -32t89 -112q0 -49 -26 -104l-559 -1253q-106 -236 -215 -324t-271 -88q-125 0 -187.5 39.5t-62.5 105.5z M172 -188q0 -25 27 -25q39 0 65 41q41 59 124 235.5t147 339.5q-70 -25 -155 -155.5t-159 -294.5q-49 -102 -49 -141z" />
<glyph unicode="K" horiz-adv-x="1282" d="M162 0l577 1303q10 25 11 38q0 43 -84 43h-21q-63 0 -63 56q0 47 40 68.5t148 21.5q170 0 255 -32t85 -112q0 -49 -25 -104l-176 -395q33 -8 80 -8t89 46t65.5 98t61.5 144.5t59 135.5q63 125 148 176t233 51q68 0 89 -20.5t21 -57.5q0 -68 -69 -68q-31 0 -53.5 -16 t-49.5 -68q-29 -55 -60.5 -135t-52 -129t-54.5 -101t-86 -82t-128 -40q123 -47 123 -160q0 -82 -61 -192q-88 -166 -88 -211q0 -35 36 -35q66 0 167.5 76t131.5 141l64 -80l-2 -4q-55 -125 -256 -239.5t-359 -114.5q-63 0 -105 42t-42 97q0 88 107 287q98 182 98 242 q0 68 -94 67q-66 0 -84 -6l-322 -723h-354z" />
<glyph unicode="L" horiz-adv-x="1566" d="M186 170q0 129 91.5 214t275.5 85q78 0 115 -2q43 72 115.5 223.5t115.5 227.5q104 193 260 385q-57 61 -119.5 86.5t-154.5 25.5q-66 0 -129.5 -28.5t-71.5 -28.5q-18 0 -31.5 13t-13.5 30q0 61 89 95t196 34q219 0 344 -111q131 125 311 125q100 0 154.5 -53t54.5 -137 q0 -109 -65.5 -178.5t-174 -69.5t-186.5 33q-2 -4 -132 -280.5t-239 -461.5q63 -27 160.5 -100.5t195 -121.5t214.5 -48q131 0 290 170l91 -25q-180 -178 -279.5 -228t-267.5 -50q-139 0 -260 50t-289 157q-197 -207 -467 -207q-86 0 -139.5 43t-53.5 133zM334 184 q0 -37 49 -37q76 0 195 175q-29 6 -58 6q-76 0 -131 -39t-55 -105zM1438 1262q37 -27 94 -27q47 0 75.5 25.5t28.5 62.5q0 23 -13 38t-32 15q-85 1 -153 -114z" />
<glyph unicode="M" horiz-adv-x="1785" d="M162 0l577 1303q10 25 11 38q0 43 -84 43h-21q-63 0 -63 56q0 47 40 68.5t148 21.5q328 0 338 -129q129 129 328 129q233 0 245 -152q74 80 153 116t191 36q246 0 246 -166q0 -70 -45 -170l-424 -952q-4 -6 -4 -17q0 -18 29 -18q68 0 175 76.5t138 148.5l64 -84 q-53 -123 -254 -238.5t-361 -115.5q-74 0 -115.5 37t-41.5 94q0 39 20 92l483 1086q10 27 11 49q0 25 -31 24q-61 0 -159.5 -77.5t-143.5 -155.5l-506 -1143h-340l580 1303q10 27 10 49q0 25 -31 24q-63 0 -160.5 -78.5t-142.5 -158.5l-506 -1139h-354z" />
<glyph unicode="N" horiz-adv-x="1196" d="M162 0l577 1303q10 25 11 38q0 43 -84 43h-21q-63 0 -63 56q0 47 40 68.5t148 21.5q328 0 338 -129q129 129 328 129q246 0 245 -166q0 -70 -45 -170l-424 -952q-4 -6 -4 -17q0 -18 29 -18q68 0 175.5 76.5t137.5 148.5l64 -84q-53 -123 -254 -238.5t-361 -115.5 q-74 0 -115.5 37t-41.5 94q0 39 20 92l484 1086q10 27 10 49q0 25 -31 24q-63 0 -160.5 -78.5t-142.5 -158.5l-506 -1139h-354z" />
<glyph unicode="O" horiz-adv-x="1206" d="M256 184q0 41 27 109l415 934q133 303 512 303q123 0 197 -45q51 63 160 63q63 0 101 -29.5t38 -86.5q0 -76 -43 -138q29 -4 37 -4q90 0 196 66q2 2 9 2q12 0 12 -10q0 -8 -6 -21l-33 -84q-31 -41 -101.5 -70.5t-136.5 -29.5q-16 0 -41 4q-2 -39 -36 -115l-330 -739 q-63 -145 -218 -222t-378 -77q-381 0 -381 190zM643 276q0 -66 105 -65q109 0 161 121l369 825q25 55 25 103q0 51 -34 81.5t-77 30.5q-74 0 -115 -94l-420 -946q-14 -29 -14 -56zM1481 1380q0 -55 63 -63q14 35 15 65q0 45 -29 45q-49 0 -49 -47z" />
<glyph unicode="P" horiz-adv-x="1114" d="M162 0l577 1303q10 25 11 38q0 43 -84 43h-21q-63 0 -63 56q0 47 40 68.5t148 21.5q270 0 324 -84q111 84 290 84q297 0 297 -176q0 -68 -41 -156l-229 -508q-170 -377 -639 -377q-55 0 -113 6l-143 -319h-354zM721 461q41 -4 57 -4q102 0 171 52t124 179l215 479 q47 109 47 148q0 74 -90 74q-113 0 -160 -107z" />
<glyph unicode="Q" horiz-adv-x="1325" d="M211 -227q0 131 91 216t273 85q74 0 117 -8q252 434 522 1071q45 98 46 170q0 94 -101 94q-47 0 -76.5 -27.5t-68.5 -113.5l-277 -623q-86 -190 -86 -315q0 -49 18.5 -85t18.5 -47q0 -29 -19.5 -50t-52.5 -21q-6 0 -22 4q-244 70 -244 305q0 135 74 301l221 504 q70 160 187.5 231.5t326.5 71.5q207 0 314.5 -49t107.5 -180q0 -86 -47 -207q-236 -610 -520 -1100q35 -8 80 -8q297 0 608 440l65 -80q-70 -119 -134 -206t-149 -167.5t-187.5 -123.5t-217.5 -43q-78 0 -188 16q-168 -211 -479 -211q-201 0 -201 156zM358 -213 q0 -37 50 -37q74 0 194 176q-41 4 -57 4q-76 0 -131.5 -38.5t-55.5 -104.5z" />
<glyph unicode="R" horiz-adv-x="1153" d="M162 0l577 1303q10 25 11 38q0 43 -84 43h-21q-63 0 -63 56q0 47 40 68.5t148 21.5q272 0 326 -84q111 84 315 84q250 0 250 -184q0 -158 -152.5 -324t-324.5 -195q96 -14 145 -45.5t49 -99.5q0 -80 -90 -250q-78 -141 -78 -188q0 -29 39 -29q66 0 166.5 76t132.5 141 l62 -80q-57 -129 -254 -243.5t-346 -114.5q-74 0 -119 37t-45 92q0 92 94 264q98 182 98 287q0 47 -43 69.5t-135 30.5l-344 -774h-354zM899 860q184 43 300 159t116 277q0 92 -84 93q-98 0 -152 -125z" />
<glyph unicode="S" horiz-adv-x="1181" d="M311 244q0 205 178.5 369.5t419.5 222.5q-8 55 -8 147q0 172 143 330q-115 104 -227 104q-55 0 -104 -24q-66 -35 -80 -35q-16 0 -29.5 12t-13.5 33q0 59 75.5 93t180.5 34q166 0 309 -117q162 117 373 117q96 0 153.5 -40t57.5 -114q0 -121 -89 -195.5t-202 -74.5 q-100 0 -176 37q-18 -49 -19 -125q0 -39 56 -170q37 -2 125 -2q39 0 69 12l-53 -117q-23 -20 -98 -24q12 -70 12 -111q0 -227 -201.5 -419.5t-488.5 -192.5q-164 0 -263.5 65.5t-99.5 184.5zM582 272q0 -55 31.5 -94t82.5 -39q137 0 218 107.5t81 212.5q0 84 -41 211 q-160 -53 -266 -155t-106 -243zM1339 1270q63 -35 121 -35q39 0 78 28.5t39 57.5q0 25 -16.5 40t-42.5 15q-99 0 -179 -106z" />
<glyph unicode="T" horiz-adv-x="1200" d="M358 0l557 1276q16 43 17 63q0 51 -76 52h-207q-55 0 -55 65q0 68 63 68h1162q-111 -117 -141.5 -160t-55.5 -113h-147q37 98 77 140h-278q0 -2 1 -10.5t1 -14.5q-6 -98 -68 -242l-481 -1124h-369z" />
<glyph unicode="U" horiz-adv-x="1198" d="M254 143q0 63 37 150l450 1010q10 25 11 38q0 43 -84 43h-21q-63 0 -63 56q0 47 40 68.5t148 21.5q170 0 255 -32t85 -112q0 -49 -25 -104l-475 -1071q-8 -14 -8 -27q0 -20 25 -20q23 0 78 22q162 78 239 213l502 1125h340l-576 -1286q-4 -10 -4 -17q0 -14 25 -14 q72 0 180.5 76.5t138.5 148.5l64 -84q-33 -76 -137.5 -160t-229.5 -139t-215 -55q-88 0 -131 42t-43 111v25q-190 -178 -448 -178q-158 -1 -158 149z" />
<glyph unicode="V" horiz-adv-x="1198" d="M248 143q0 49 26 117l467 1043q10 25 11 38q0 43 -84 43h-21q-63 0 -63 56q0 47 40 68.5t148 21.5q170 0 255 -32t85 -112q0 -53 -25 -104l-464 -1038q-12 -35 -13 -49q0 -29 29 -29t72 22q119 59 245 254q145 219 256 472t236 610h340q-63 -168 -104.5 -268.5t-111 -250 t-136 -254t-162.5 -224t-207 -216.5q-360 -317 -631 -317q-94 0 -141 40.5t-47 108.5z" />
<glyph unicode="W" horiz-adv-x="1808" d="M250 143q0 49 26 117l467 1043q10 25 11 38q0 43 -84 43h-21q-63 0 -63 56q0 47 40 68.5t148 21.5q170 0 255 -32t85 -112q0 -47 -24 -104l-465 -1038q-12 -27 -13 -49q0 -29 29 -29t72 22q119 59 245 254q145 219 256 472t236 610h338q-246 -655 -553 -1280 q-14 -31 -14 -49q0 -29 30.5 -29t69.5 22q123 63 246 254q147 219 258.5 473t232.5 609h340q-78 -209 -132 -338t-142 -301t-197.5 -312.5t-247.5 -261.5q-360 -317 -630 -317q-180 0 -181 149v13q-238 -162 -430 -162q-94 0 -141 40.5t-47 108.5z" />
<glyph unicode="X" horiz-adv-x="1249" d="M158 2q113 545 708 854q-25 342 -47 444q-16 84 -143 84q-61 0 -62 56q0 47 40 68.5t149 21.5q219 0 286.5 -89t79.5 -388q92 76 145.5 177t119.5 294h340q-145 -391 -588 -637q27 -410 65 -625q4 -47 47 -47q66 0 170.5 77t135.5 140l63 -80l-2 -4 q-51 -115 -230.5 -234.5t-287.5 -119.5q-100 0 -148.5 39t-64.5 137q-23 127 -53 516q-145 -137 -245.5 -314t-137.5 -370h-340z" />
<glyph unicode="Y" horiz-adv-x="1198" d="M344 367q0 63 37 149l350 787q10 25 10 38q0 43 -82 43h-22q-63 0 -64 56q0 47 40 68.5t149 21.5q170 0 256 -32t86 -112q0 -45 -27 -104l-375 -850q-8 -14 -8 -24q0 -23 25 -23q27 0 78 25q164 78 239 211l402 903h340l-609 -1321q131 14 220 73q119 80 155 156l62 -80 q-47 -106 -205 -208.5t-309 -131.5q-160 -395 -471 -395q-104 0 -168 47t-64 133q0 139 125 240.5t336 150.5l80 187q-178 -154 -428 -154q-158 1 -158 146zM567 -182q0 -33 47 -33q33 0 54 31q70 88 102 200q-86 -25 -144.5 -82t-58.5 -116z" />
<glyph unicode="Z" horiz-adv-x="1402" d="M231 213q0 109 70 182.5t227 73.5q104 0 170 -16q231 326 545 878q10 20 10 35q0 25 -28 25h-482q-25 0 -40 19.5t-15 45.5q0 29 16.5 48.5t45.5 19.5h892q18 0 34 -14.5t16 -32.5q0 -20 -11 -31q-502 -821 -694 -1081q55 -33 145.5 -99.5t154 -102.5t118.5 -36 q131 0 295 170l92 -25q-176 -172 -279.5 -225t-238.5 -53q-39 0 -73 8t-77 29.5t-69.5 38t-89 58.5t-97.5 65q-133 -199 -401 -199q-94 0 -165 52t-71 167zM362 221q0 -74 64 -74q78 0 182 170q-47 10 -90 11q-76 0 -116 -29t-40 -78z" />
<glyph unicode="[" horiz-adv-x="501" d="M35 -168l825 1942h250l-43 -103h-113l-739 -1734h113l-45 -105h-248z" />
<glyph unicode="\" horiz-adv-x="911" d="M299 1665h201l594 -1935h-201z" />
<glyph unicode="]" horiz-adv-x="501" d="M29 -168l45 102h116l740 1735h-113l43 105h246l-825 -1942h-252z" />
<glyph unicode="^" horiz-adv-x="743" d="M334 727l627 778h83l-40 -778h-158l49 494l-377 -494h-184z" />
<glyph unicode="_" horiz-adv-x="870" d="M-4 -379l78 172h872l-76 -172h-874z" />
<glyph unicode="`" horiz-adv-x="405" d="M360 1253l195 140l231 -426l-102 -66z" />
<glyph unicode="a" horiz-adv-x="983" d="M258 164q0 117 96 303q117 233 221.5 319t233.5 86t178 -81l21 47h243l-215 -482q-41 -96 -41 -110q0 -31 35 -31q68 0 172.5 77t134.5 140l64 -80q-59 -127 -258 -242.5t-361 -115.5q-72 0 -86 78q-90 -78 -245 -78q-86 0 -139.5 44t-53.5 126zM541 172q0 -33 28 -33 q47 0 90 90l197 445q4 8 4 26q0 29 -35 29q-51 0 -80 -67l-186 -420q-18 -37 -18 -70z" />
<glyph unicode="b" horiz-adv-x="952" d="M262 186q0 72 39 156l526 1182h340l-309 -701q57 49 141 49q156 0 156 -172q0 -82 -104 -321q-8 -16 -9 -37q0 -39 52 -39q131 0 211 129l63 -80q-43 -82 -106.5 -133t-115.5 -66.5t-104 -15.5q-90 0 -120 49q-68 -82 -187 -137t-225 -55q-248 -1 -248 192zM575 166 q0 -33 27 -33q45 0 92 96l207 459q2 6 2 14q0 27 -41 27q-43 0 -65 -43l-207 -457q-15 -28 -15 -63z" />
<glyph unicode="c" d="M268 166q0 84 64 229l76 170q72 164 189.5 235.5t305.5 71.5q150 0 211.5 -25.5t61.5 -98.5q0 -23 -11 -58l-348 -125q57 78 57 137q0 27 -38 27q-45 0 -68 -43l-201 -444q-14 -35 -14 -68q0 -41 74 -41q211 0 405 115q139 80 199 184l63 -80q-37 -82 -139 -159 q-260 -199 -549 -199q-176 0 -257 34t-81 138z" />
<glyph unicode="d" horiz-adv-x="991" d="M270 160q0 92 62 229l35 76q96 209 211.5 308t238.5 99q76 0 117 -24l303 676h340l-563 -1237q-10 -23 -10 -43q0 -29 30 -29q61 0 162.5 67.5t149.5 149.5l61 -80q-49 -117 -251 -237.5t-361 -120.5q-74 0 -109 67q-88 -68 -240 -67q-76 0 -126 43t-50 123zM545 162 q0 -29 24 -29q45 0 74 64l234 520q-10 16 -35 16q-51 0 -80 -63l-201 -457q-16 -33 -16 -51z" />
<glyph unicode="e" horiz-adv-x="868" d="M270 166q0 84 64 229l76 170q74 170 183 238.5t314 68.5q152 0 208 -31.5t56 -99.5q0 -139 -77 -243q-96 -129 -476 -150q-51 -113 -51 -153q0 -55 76 -56q168 0 339 86t241 207l63 -80q-49 -102 -176 -188q-123 -88 -239.5 -129t-262.5 -41q-180 0 -259 33t-79 139z M662 457q92 8 153.5 77.5t61.5 167.5q0 27 -39 27q-51 0 -86 -80z" />
<glyph unicode="f" horiz-adv-x="796" d="M90 -221q0 61 35 143l614 1376q57 127 163 179.5t280 52.5q193 0 192 -129q0 -39 -22 -96l-260 -580q-51 -113 -139.5 -214t-164.5 -134q25 -113 119 -113q51 0 123 42t121 126l61 -80q-51 -104 -149 -165.5t-205 -61.5q-57 0 -80 8q6 -12 6 -33q0 -63 -41 -157l-59 -131 q-88 -195 -367 -195q-227 0 -227 162zM418 -197q0 -18 22 -18q47 0 68 43l90 199q35 84 35 143q0 51 -31 59l-170 -379q-14 -31 -14 -47zM735 524q96 35 174 201l267 594q4 8 4 20q0 25 -35 25q-33 0 -49 -33z" />
<glyph unicode="g" horiz-adv-x="993" d="M164 -233q0 106 89 191t214 116q-150 29 -150 188q0 96 52 205q109 246 217 325.5t268 79.5q115 0 152 -81l18 47h240l-232 -519q-25 -49 -24 -73q0 -31 36 -31q63 0 168 76t136 141l61 -80q-43 -98 -186.5 -198.5t-237.5 -100.5q-35 0 -63 17l-84 -195 q-113 -258 -443 -258q-231 0 -231 150zM389 -188q0 -27 35 -27t51 35q35 57 105 237q-113 -78 -142 -131q-49 -85 -49 -114zM598 272q0 -29 25 -28q53 0 82 61l163 367q6 16 6 28q0 29 -36 29q-49 0 -68 -43l-156 -352q-16 -37 -16 -62z" />
<glyph unicode="h" horiz-adv-x="1019" d="M162 0l680 1524h340l-316 -701q86 49 168 49q172 0 172 -135q0 -23 -2 -43t-10 -50t-13 -47t-22.5 -59t-27 -62.5t-36 -82t-38.5 -92.5q-16 -49 -17 -55q0 -31 37 -31q59 0 165 77t132 140l64 -80q-51 -119 -250 -238.5t-359 -119.5q-147 0 -147 139q0 53 20 96 q25 55 89.5 190.5t95.5 217.5q14 35 14 49q0 27 -31 27q-53 0 -75 -51l-293 -662h-340z" />
<glyph unicode="i" horiz-adv-x="587" d="M238 127q0 49 26 102l305 684l258 -141l-217 -489q-10 -25 -10 -37q0 -31 35 -31q68 0 172 77t135 140l64 -80q-55 -123 -255 -240.5t-364 -117.5q-66 0 -107.5 36t-41.5 97zM645 1122q0 66 81 120t175 54q55 0 96 -25.5t41 -66.5q0 -74 -84 -122t-172 -48 q-55 0 -96 24.5t-41 63.5z" />
<glyph unicode="j" horiz-adv-x="569" d="M-215 -225q0 279 465 438l313 700l258 -141l-250 -563q106 4 213 77.5t140 145.5l61 -80q-43 -109 -182 -202q-164 -109 -322 -138l-61 -137q-51 -115 -164 -186.5t-244 -71.5q-123 0 -175 40t-52 118zM-27 -188q0 -27 35 -27q84 0 182 262q-86 -41 -151.5 -110.5 t-65.5 -124.5zM637 1122q0 66 82 120t176 54q53 0 95 -25.5t42 -66.5q0 -74 -84 -122t-172 -48q-57 0 -98 25.5t-41 62.5z" />
<glyph unicode="k" horiz-adv-x="1032" d="M162 0l680 1524h338l-336 -756q98 104 295 104q147 0 147 -94q0 -72 -75.5 -143.5t-217.5 -118.5q109 -6 109 -90q0 -23 -27.5 -91.5t-27.5 -84.5q0 -35 36 -35q66 0 169.5 77t133.5 140l64 -80q-61 -131 -266 -244.5t-393 -113.5q-57 0 -84 32.5t-27 77.5q0 49 45 153.5 t45 137.5q0 25 -31 25q-55 0 -75 -51l-160 -369h-342zM733 545q80 6 151.5 38.5t90.5 84.5l4 12q0 25 -31 25q-41 0 -99.5 -42t-115.5 -118z" />
<glyph unicode="l" horiz-adv-x="737" d="M268 193q0 55 23 102l434 975q61 137 168.5 198.5t275.5 61.5q201 0 201 -131q0 -45 -41 -139l-121 -267q-135 -305 -456 -428l-123 -274q-12 -25 -13 -43q0 -23 36 -37t77 -14q94 0 204.5 74.5t158.5 160.5l63 -80q-66 -137 -257 -247.5t-400 -110.5q-102 0 -166 55.5 t-64 143.5zM831 754q98 35 193 239l123 264q27 63 27 78q0 20 -31 21q-39 0 -56 -37z" />
<glyph unicode="m" horiz-adv-x="1468" d="M162 0l405 913l217 -112q88 72 267 71q115 0 147 -84q88 84 293 84q78 0 120 -40.5t42 -112.5q0 -47 -21.5 -111.5t-76 -182.5t-60.5 -132q-14 -29 -14 -47q0 -31 37 -31q66 0 171 77t134 140l63 -80q-53 -123 -256 -240.5t-362 -117.5q-70 0 -110 36t-40 95q0 43 39 137 t101.5 223t84.5 181q10 31 11 47q0 25 -29 24q-59 0 -78 -51l-303 -686h-340l301 676q8 29 8 37q0 25 -30 24q-55 0 -74 -51l-305 -686h-342z" />
<glyph unicode="n" horiz-adv-x="1028" d="M162 0l405 913l215 -112q74 72 269 71q78 0 119.5 -40.5t41.5 -112.5q0 -47 -21.5 -111.5t-75.5 -182.5t-60 -132q-14 -29 -15 -47q0 -31 37 -31q66 0 171.5 77t133.5 140l64 -80q-53 -123 -256 -240.5t-363 -117.5q-70 0 -109.5 36t-39.5 95q0 43 39 137t101.5 223 t84.5 181q10 31 10 47q0 25 -28 24q-59 0 -78 -51l-303 -686h-342z" />
<glyph unicode="o" d="M254 158q0 74 51 182l94 205q82 178 180.5 252.5t223.5 74.5q59 0 84 -6q74 68 182 68q135 0 135 -111q0 -57 -37 -137q45 -10 66 -10q92 0 184 69l53 -71q-113 -119 -352 -144q-68 -174 -133 -283.5t-140 -163.5t-146.5 -71.5t-176.5 -17.5q-268 0 -268 164zM543 162 q0 -39 35 -39q49 0 79 59l191 430q-39 25 -39 86q0 18 2 29q-39 -20 -70 -94l-188 -430q-10 -23 -10 -41zM983 764q0 -59 66 -59q16 25 16 59q0 47 -33 47q-49 0 -49 -47z" />
<glyph unicode="p" horiz-adv-x="942" d="M-8 -377l540 1215h242l-31 -72q96 106 254 106q80 0 124 -39.5t44 -107.5q0 -113 -104 -346q-6 -18 -6 -37q0 -39 51 -39q53 0 104.5 34t85.5 95l62 -80q-29 -68 -117 -141.5t-207 -73.5q-66 0 -100 49q-150 -193 -326 -192q-76 0 -102 31l-178 -402h-336zM582 170 q0 -37 32 -37q45 0 93 96l194 430q8 16 8 37q0 33 -35 33q-47 0 -65 -43l-217 -477q-10 -21 -10 -39z" />
<glyph unicode="q" horiz-adv-x="995" d="M270 164q0 94 99 303q184 406 440 405q139 0 178 -81l21 47h256l-246 -555q-10 -18 -10 -37q0 -31 36 -31q63 0 169 76t137 141l61 -80q-43 -96 -188.5 -198.5t-239.5 -102.5q-37 0 -61 19l-197 -439h-319l163 371q-20 -8 -92 -8q-96 0 -151.5 44t-55.5 126zM547 172 q0 -33 35 -33q45 0 86 90l196 435q8 16 8 34q0 31 -34 31q-47 0 -68 -43l-203 -444q-20 -50 -20 -70z" />
<glyph unicode="r" horiz-adv-x="882" d="M143 227q23 18 43 52q125 215 273 647l499 -283q57 -35 58 -78q0 -29 -60.5 -150.5t-60.5 -170.5q0 -29 33 -29q68 0 172 75t137 142l63 -80q-55 -121 -255.5 -239.5t-362.5 -118.5q-147 0 -147 139q0 86 120 313q68 125 68 158q0 14 -39 31l-43 18q-49 -139 -160 -264 q-205 -233 -309 -233z" />
<glyph unicode="s" horiz-adv-x="905" d="M242 236q0 23 15 51t49 75.5t48 69.5q45 70 90 124t79 88t102 93q-4 37 -4 51q0 131 74.5 224.5t187.5 93.5q119 0 118.5 -102.5t-143.5 -231.5q166 -209 166 -323q0 -217 -209 -297q119 20 249 97t193 183l64 -80q-90 -158 -288.5 -258t-405.5 -100q-121 0 -203 68.5 t-82 162.5v23q-12 -14 -90 -66q-10 36 -10 54zM469 270q0 -66 78 -65q68 0 116 63.5t48 137.5q0 123 -37 186q-96 -68 -148 -150q-57 -92 -57 -172zM799 924q0 -25 4 -45q63 43 63 86q0 20 -18 20q-49 0 -49 -61z" />
<glyph unicode="t" horiz-adv-x="591" d="M244 139q0 49 22 94l221 498h-88l52 115h86l284 633l348 22l-290 -655h92l-51 -115h-93l-213 -475q-10 -20 -10 -33q0 -16 21 -16q70 0 179 79t142 146l62 -80q-53 -123 -253 -240.5t-362 -117.5q-68 0 -108.5 42t-40.5 103z" />
<glyph unicode="u" horiz-adv-x="995" d="M262 150q0 84 51 198l217 490h308l-267 -596q-16 -39 -16 -70q0 -33 29 -33q45 0 86 90l303 684l260 -141l-217 -489q-8 -16 -8 -37q0 -31 36 -31q63 0 169 76t137 141l61 -80q-51 -115 -242.5 -236.5t-326.5 -121.5q-106 0 -131 78q-100 -78 -267 -78q-182 0 -182 156z " />
<glyph unicode="v" horiz-adv-x="841" d="M270 164q0 84 66 231l196 443h308l-269 -596q-20 -47 -20 -70q0 -33 33 -33q27 0 58.5 42t100.5 184q119 244 234 548l260 -141q-180 -453 -330 -598q-197 -180 -450 -180q-80 0 -133.5 44t-53.5 126z" />
<glyph unicode="w" horiz-adv-x="1288" d="M272 172q0 84 62 223l231 518l244 -141l-240 -530q-18 -45 -18 -70q0 -33 31 -33q47 0 88 90l223 496l237 -143l-151 -340q-16 -33 -16 -70q0 -33 28 -33q45 0 108.5 84t110.5 196.5t54 192.5q-39 29 -39 99q0 94 70.5 159.5t174.5 65.5q74 0 117 -34t43 -99 q0 -39 -45 -117q33 -4 55 -4q82 0 177 59l71 -67q-115 -113 -381 -142q-10 -66 -32.5 -133t-66.5 -142t-102.5 -132t-144.5 -94t-188 -37q-199 0 -230 80q-41 -33 -112.5 -56.5t-141.5 -23.5q-106 0 -161.5 47t-55.5 131zM1401 764q0 -53 67 -55q12 31 13 57q0 45 -31 45 q-49 0 -49 -47z" />
<glyph unicode="x" horiz-adv-x="882" d="M209 74l418 321q78 205 78 219q0 33 -31 33q-23 0 -65 -60.5t-112.5 -157.5t-140.5 -161l-84 54q125 164 215 309q82 137 163 189t204 52q76 0 110.5 -28.5t34.5 -93.5q0 -35 -8 -74l246 196l84 -75l-401 -320q-82 -213 -82 -231q0 -33 30 -33q121 0 224 70 q102 72 145 149l63 -80q-55 -121 -253.5 -239.5t-360.5 -118.5q-70 0 -108.5 31.5t-38.5 78.5q0 35 18 91l-268 -207z" />
<glyph unicode="y" horiz-adv-x="995" d="M162 -233q0 106 89 191t216 116q-152 29 -152 188q0 92 52 205l198 446l242 -141l-195 -438q-16 -37 -16 -62q0 -29 25 -28q55 0 81 61l289 647l242 -180l-203 -453q-23 -45 -22 -73q0 -31 34 -31q63 0 170 77t138 140l61 -80q-43 -98 -188.5 -198.5t-241.5 -100.5 q-33 0 -61 17l-84 -195q-109 -258 -443 -258q-231 0 -231 150zM387 -188q0 -27 35 -27q33 0 51 35q35 57 105 237q-113 -78 -142 -131q-49 -85 -49 -114z" />
<glyph unicode="z" horiz-adv-x="905" d="M219 63q102 111 333.5 318t301.5 283q-164 10 -248 10q-63 0 -141 -41l-16 35q16 111 62 174t118 63q35 0 181 -23.5t237 -23.5q37 0 180 14l30 -34q-115 -125 -358.5 -342t-284.5 -258q49 12 113 12q25 0 106.5 -5t133.5 -5q84 0 166 59q92 66 124 133l64 -80 q-31 -70 -120 -148.5t-212 -135.5q-152 -74 -287 -74q-53 0 -148 3t-138 3q-145 0 -180 -6z" />
<glyph unicode="{" horiz-adv-x="632" d="M221 0q0 68 35 147l197 459q14 25 16 58q0 49 -16 92q-6 10 -7 20q4 37 25 58q55 51 75.5 71.5t43 46t31.5 45.5l194 457q135 319 418 320q16 0 16 -11q-2 -18 -45 -34.5t-107.5 -73t-109.5 -164.5l-229 -537q-29 -68 -135 -151q18 -55 18 -84q0 -31 -16 -70l-228 -534 q-31 -66 -30 -123q0 -45 16 -74t32.5 -43t16.5 -22q0 -23 -26 -23q-74 0 -129.5 42t-55.5 128z" />
<glyph unicode="|" horiz-adv-x="858" d="M319 -270l816 1935h200l-815 -1935h-201z" />
<glyph unicode="}" horiz-adv-x="632" d="M31 -162q0 14 27.5 29.5t65.5 33t87 74t86 140.5l223 534q29 63 139 154q-23 53 -22 94q8 31 18 57l230 537q31 72 30 129q0 41 -17 68.5t-33.5 41t-16.5 19.5q0 25 24 25q76 0 130.5 -41t54.5 -129q0 -80 -33 -150l-195 -457q-10 -18 -14 -53q0 -47 14 -96q6 -10 7 -35 q0 -20 -27 -43q-119 -82 -145 -164l-197 -459q-139 -317 -422 -317q-14 0 -14 8z" />
<glyph unicode="~" horiz-adv-x="1001" d="M354 508q0 59 101.5 152.5t203.5 93.5q61 0 107.5 -23.5t68 -51.5t55.5 -51.5t75 -23.5q92 0 198 129q12 18 33 19q12 0 12 -25q-4 -86 -103 -174t-210 -88q-66 0 -111 38t-89 75.5t-107 37.5q-66 0 -185 -118q-16 -16 -32.5 -16.5t-16.5 26.5z" />
<glyph unicode="&#xa1;" horiz-adv-x="677" d="M180 -377l533 1190l272 -141l-448 -1049h-357zM778 975q0 72 86 122t170 50q59 0 99.5 -25.5t40.5 -64.5q0 -68 -82 -120t-177 -52q-53 0 -95 25.5t-42 64.5z" />
<glyph unicode="&#xa2;" horiz-adv-x="937" d="M514 627q0 86 64 231l75 168q68 154 172.5 225.5t266.5 81.5l59 129h164l-58 -133q86 -8 125 -35.5t39 -85.5q0 -25 -10 -55l-348 -127q57 78 57 137q0 29 -39 29q-45 0 -67 -43l-201 -444q-14 -37 -14 -68q0 -41 73 -41q162 0 312 68l24 -129q-156 -76 -344 -78 l-53 -135h-168l62 141q-96 10 -143.5 47t-47.5 117z" />
<glyph unicode="&#xa3;" horiz-adv-x="897" d="M270 522q0 51 29 88t80 37t115 -22q51 70 106 239h-123l76 113h94q72 186 199 257t340 71q186 0 276 -13l-159 -164q-55 25 -179 25q-55 0 -108 -48t-86 -128h250l-111 -113h-195q-27 -119 -70.5 -177t-117.5 -99q31 -14 105 -15q100 0 229 26t194 63l-92 -187 q-80 -39 -217 -39q-174 0 -358 39q-80 -43 -158 -43q-119 0 -119 90z" />
<glyph unicode="&#xa5;" horiz-adv-x="837" d="M270 829q66 72 244 80l55 109h-217q59 63 226 84q-66 143 -66 258q0 82 45 111.5t129 29.5q-16 -82 -16 -108q0 -117 69 -267q141 164 251 250t174.5 105.5t150.5 19.5q-70 -39 -232.5 -205t-226.5 -194h174q-47 -41 -94 -57.5t-141 -26.5l-43 -109h196 q-109 -80 -235 -80q-29 -63 -62 -105t-58.5 -64.5t-68.5 -33t-69.5 -12.5t-79.5 -2l9 19q7 14 31.5 66.5t59.5 131.5h-205z" />
<glyph unicode="&#xa6;" horiz-adv-x="858" d="M319 -270l314 745h201l-314 -745h-201zM848 983l287 682h200l-286 -682h-201z" />
<glyph unicode="&#xa8;" horiz-adv-x="823" d="M360 1122q0 66 81 120t173 54q57 0 98.5 -25.5t41.5 -66.5q0 -74 -84 -122t-172 -48q-57 0 -97.5 24.5t-40.5 63.5zM811 1122q0 66 82 120t174 54q55 0 96 -25.5t41 -66.5q0 -74 -83 -122t-171 -48q-57 0 -98 24.5t-41 63.5z" />
<glyph unicode="&#xa9;" horiz-adv-x="1316" d="M508 545q0 311 174 532t412 221q207 0 337 -160.5t130 -420.5q0 -315 -165 -532.5t-419 -217.5q-219 0 -344 161t-125 417zM584 541q0 -133 37.5 -235.5t98 -160t128 -86t135.5 -28.5q129 0 230.5 67.5t157.5 174t86 220t30 220.5q0 246 -126 382t-274 136 q-207 0 -355 -195.5t-148 -494.5zM762 612q0 172 89 272.5t251 100.5q49 0 99 -14.5t52 -34.5l11 -105q-4 -39 -17 -38q-10 0 -24.5 33.5t-48 68.5t-93.5 35q-111 0 -162 -90t-51 -236q0 -113 45 -180.5t129 -67.5q61 0 97.5 27t79.5 98q12 16 24 17q16 0 17 -19 q0 -16 -7 -33l-22 -100q-8 -23 -70.5 -36t-132.5 -13q-123 0 -194.5 90t-71.5 225z" />
<glyph unicode="&#xaa;" horiz-adv-x="780" d="M567 909q0 82 74 230q88 174 166 238.5t174 64.5q98 0 135 -62l14 35h183l-160 -360q-31 -63 -31 -84q0 -23 27 -23t72 21l26 -92q-152 -94 -284 -95q-53 0 -64 58q-68 -57 -186 -58q-63 0 -104.5 33t-41.5 94zM780 915q0 -25 25 -24q35 0 63 67l148 334q6 10 6 19 q0 23 -27 22q-39 0 -61 -51l-139 -315q-15 -29 -15 -52z" />
<glyph unicode="&#xab;" horiz-adv-x="1116" d="M477 633l62 131l362 156l33 -123l-295 -109l172 -110l-70 -115zM938 633l61 131l363 156l33 -123l-295 -109l172 -110l-70 -115z" />
<glyph unicode="&#xac;" horiz-adv-x="978" d="M354 502l15 147h819l-49 -573h-127l37 426h-695z" />
<glyph unicode="&#xad;" horiz-adv-x="536" d="M379 731l51 115h440l-49 -115h-442z" />
<glyph unicode="&#xae;" horiz-adv-x="1316" d="M508 545q0 313 174 534t412 221q209 0 338 -160.5t129 -422.5q0 -313 -166 -531.5t-418 -218.5q-217 0 -343 161t-126 417zM584 539q0 -133 36.5 -235.5t97 -160t127 -85t136.5 -27.5q104 0 191.5 46t144.5 117.5t96 164t56.5 181.5t17.5 173q0 246 -127 383t-275 137 q-209 0 -355 -196.5t-146 -497.5zM752 291q0 23 45 33t47 28l43 553q0 16 -38 24.5t-38 31.5q0 33 23 32q14 0 50 -3t58 -3q25 0 66 5t77 5q59 0 95.5 -45t36.5 -114q0 -160 -103 -244q8 -33 21.5 -73t36 -92t53 -86t61.5 -34q14 0 14 -16q0 -29 -20 -29h-59q-61 0 -87 15.5 t-47 80.5q-12 39 -26 94.5t-22.5 80t-12.5 24.5h-68q-8 0 -8 -8l-16 -199q0 -16 39 -26.5t39 -32.5q0 -29 -19 -29q-16 0 -51 3t-59 3q-23 0 -62 -3t-51 -3q-18 0 -18 27zM956 627q0 -14 66 -15q39 0 69.5 58.5t30.5 130.5q0 61 -22.5 97t-57.5 36h-41q-23 0 -22 -25z" />
<glyph unicode="&#xaf;" horiz-adv-x="686" d="M360 1085l52 115h655l-49 -115h-658z" />
<glyph unicode="&#xb0;" horiz-adv-x="616" d="M496 1085.5q0 104.5 65.5 178t157.5 73.5q94 0 160.5 -73.5t66.5 -178t-66.5 -178t-160.5 -73.5q-92 0 -157.5 73.5t-65.5 178zM604 1085.5q0 -57.5 34 -96.5t81 -39q49 0 83 39t34 96.5t-34 97.5t-83 40q-47 0 -81 -40t-34 -97.5z" />
<glyph unicode="&#xb1;" horiz-adv-x="978" d="M281 -154l14 148h819l-14 -148h-819zM354 502l15 147h346l41 441h125l-39 -441h346l-14 -147h-347l-34 -426h-127l36 426h-348z" />
<glyph unicode="&#xb2;" horiz-adv-x="641" d="M451 786l65 146q70 160 152 194q16 8 182 66q61 18 61 53q0 23 -84 23q-16 0 -38.5 -3t-38.5 -3q-27 0 -42.5 16t-15.5 37q0 41 36 50t138 9q133 0 189.5 -27.5t56.5 -91.5q0 -68 -44 -118t-169 -95q-127 -45 -157.5 -64.5t-51.5 -64.5l-8 -14h287l-49 -113h-469z" />
<glyph unicode="&#xb3;" horiz-adv-x="647" d="M432 791l131 102q14 -2 51 -2q203 0 203 86q0 39 -55 47q-74 12 -74 63q0 61 115 74q100 10 100 66q0 41 -90 41q-16 0 -39.5 -3t-42.5 -3q-27 0 -42 16t-15 37q0 41 35.5 50t138.5 9q147 0 199.5 -29.5t52.5 -91.5q0 -49 -39 -90t-111 -61q59 -39 60 -105 q0 -84 -55.5 -133t-136.5 -65.5t-200 -16.5q-141 1 -186 9z" />
<glyph unicode="&#xb4;" horiz-adv-x="458" d="M360 979l312 414l168 -154l-398 -338z" />
<glyph unicode="&#xb7;" horiz-adv-x="632" d="M555 635q0 70 83 121t173 51q55 0 96 -24.5t41 -63.5q0 -74 -86 -124t-170 -50q-57 0 -97 24.5t-40 65.5z" />
<glyph unicode="&#xb8;" horiz-adv-x="561" d="M356 -315l150 297l170 -111l-221 -254z" />
<glyph unicode="&#xb9;" horiz-adv-x="483" d="M530 786l195 437q4 12 4 20q0 18 -29 19h-24q-47 0 -47 55q0 37 26.5 47t106.5 10q104 0 146 -19.5t42 -72.5q0 -31 -28 -92l-177 -404h-215z" />
<glyph unicode="&#xba;" horiz-adv-x="792" d="M567 905q0 55 39 137l70 154q115 246 303 246q39 0 63 -4q55 49 138 49q102 0 102 -84q0 -39 -29 -100q20 -6 66 -7l6 -92q-74 -14 -108 -18q-98 -252 -193.5 -328t-253.5 -76q-203 0 -203 123zM784 909q0 -31 27 -30q14 0 32.5 13t26.5 32l142 321q-29 20 -29 64 q0 16 4 24q-27 -14 -53 -71l-141 -324q-9 -17 -9 -29zM1114 1360q0 -45 49 -45q14 18 15 45q0 37 -25 37q-39 0 -39 -37z" />
<glyph unicode="&#xbb;" horiz-adv-x="1116" d="M457 612l295 107l-174 110l71 117l262 -172l-59 -131l-363 -156zM918 612l294 107l-174 110l72 117l262 -172l-59 -131l-363 -156z" />
<glyph unicode="&#xbc;" horiz-adv-x="1388" d="M197 -6l1353 1372h193l-1362 -1372h-184zM588 786l194 437q4 12 4 20q0 18 -28 19h-25q-47 0 -47 55q0 37 26.5 47t106.5 10q104 0 146.5 -19.5t42.5 -72.5q0 -31 -29 -92l-176 -404h-215zM993 221l162 363q68 -6 109 -38t41 -77q0 -18 -5 -31l-55 -121h82l10 19 q39 86 92.5 117.5t180.5 31.5l-74 -168h80l-43 -96h-84q-61 -135 -96 -221h-205l94 221h-289z" />
<glyph unicode="&#xbd;" horiz-adv-x="1388" d="M197 -6l1353 1372h193l-1362 -1372h-184zM588 786l194 437q4 12 4 20q0 18 -28 19h-25q-47 0 -47 55q0 37 26.5 47t106.5 10q104 0 146.5 -19.5t42.5 -72.5q0 -31 -29 -92l-176 -404h-215zM850 0l65 145q70 160 152 195q16 8 182 66q61 18 62 53q0 23 -84 22 q-14 0 -39 -3t-39 -3q-27 0 -42 16.5t-15 36.5q0 41 35.5 50.5t138.5 9.5q133 0 189 -28t56 -91q0 -68 -44 -118t-169 -95q-127 -45 -157.5 -64.5t-50.5 -64.5l-9 -14h287l-49 -113h-469z" />
<glyph unicode="&#xbe;" horiz-adv-x="1388" d="M197 -6l1353 1372h193l-1362 -1372h-184zM406 791l131 102q14 -2 51 -2q203 0 203 86q0 39 -56 47q-74 12 -73 63q0 61 114 74q100 10 101 66q0 41 -91 41q-16 0 -39.5 -3t-41.5 -3q-27 0 -42.5 16t-15.5 37q0 41 36 50t138 9q147 0 199.5 -29.5t52.5 -91.5 q0 -49 -39 -90t-110 -61q59 -39 59 -105q0 -84 -55.5 -133t-136 -65.5t-199.5 -16.5q-141 1 -186 9zM997 221l162 363q68 -6 109 -38t41 -77q0 -18 -4 -31l-56 -121h82l10 19q39 86 92.5 117.5t180.5 31.5l-74 -168h80l-43 -96h-84q-61 -135 -96 -221h-205l94 221h-289z" />
<glyph unicode="&#xbf;" horiz-adv-x="1132" d="M221 -193q0 59 64 183q139 252 417 372q209 88 271.5 160t120.5 277l256 -109q-35 -106 -54.5 -152t-68.5 -104.5t-120 -102.5t-208 -120q-215 -119 -268 -201q-61 -98 -62 -166q0 -74 93 -73q47 0 151.5 25.5t173.5 25.5q100 0 165 -35t65 -102q0 -29 -17.5 -48.5 t-44.5 -19.5q-29 0 -51 21q-51 33 -137 32q-37 0 -175.5 -26.5t-299.5 -26.5q-271 0 -271 190zM1159 975q0 72 85 122t169 50q57 0 98 -24.5t41 -65.5q0 -66 -81.5 -119t-174.5 -53q-55 0 -96 24.5t-41 65.5z" />
<glyph unicode="&#xc0;" horiz-adv-x="1185" d="M244 143q0 61 127 353l325 731q70 158 180.5 230.5t286.5 72.5q102 0 167 -40t85 -95l55 123h306l-574 -1285q-2 -6 -2 -12q0 -14 23 -14q72 0 179 76.5t142 148.5l62 -84q-53 -121 -253 -237.5t-362 -116.5q-135 0 -135 143q0 16 4 45q-193 -188 -459 -188 q-157 -1 -157 149zM623 227q0 -49 41 -49q68 0 159.5 88t128.5 166l312 698q33 68 32 140q0 57 -24.5 92t-69.5 35q-41 0 -69.5 -29t-67.5 -115l-352 -784q-90 -205 -90 -242zM926 1911l194 139l232 -426l-103 -65z" />
<glyph unicode="&#xc1;" horiz-adv-x="1185" d="M244 143q0 61 127 353l325 731q70 158 180.5 230.5t286.5 72.5q102 0 167 -40t85 -95l55 123h306l-574 -1285q-2 -6 -2 -12q0 -14 23 -14q72 0 179 76.5t142 148.5l62 -84q-53 -121 -253 -237.5t-362 -116.5q-135 0 -135 143q0 16 4 45q-193 -188 -459 -188 q-157 -1 -157 149zM623 227q0 -49 41 -49q68 0 159.5 88t128.5 166l312 698q33 68 32 140q0 57 -24.5 92t-69.5 35q-41 0 -69.5 -29t-67.5 -115l-352 -784q-90 -205 -90 -242zM1194 1636l311 414l168 -154l-397 -337z" />
<glyph unicode="&#xc2;" horiz-adv-x="1185" d="M244 143q0 61 127 353l325 731q70 158 180.5 230.5t286.5 72.5q102 0 167 -40t85 -95l55 123h306l-574 -1285q-2 -6 -2 -12q0 -14 23 -14q72 0 179 76.5t142 148.5l62 -84q-53 -121 -253 -237.5t-362 -116.5q-135 0 -135 143q0 16 4 45q-193 -188 -459 -188 q-157 -1 -157 149zM623 227q0 -49 41 -49q68 0 159.5 88t128.5 166l312 698q33 68 32 140q0 57 -24.5 92t-69.5 35q-41 0 -69.5 -29t-67.5 -115l-352 -784q-90 -205 -90 -242zM987 1694l330 356h147l201 -371l-106 -69l-199 213l-301 -213z" />
<glyph unicode="&#xc3;" horiz-adv-x="1185" d="M244 143q0 61 127 353l325 731q70 158 180.5 230.5t286.5 72.5q102 0 167 -40t85 -95l55 123h306l-574 -1285q-2 -6 -2 -12q0 -14 23 -14q72 0 179 76.5t142 148.5l62 -84q-53 -121 -253 -237.5t-362 -116.5q-135 0 -135 143q0 16 4 45q-193 -188 -459 -188 q-157 -1 -157 149zM623 227q0 -49 41 -49q68 0 159.5 88t128.5 166l312 698q33 68 32 140q0 57 -24.5 92t-69.5 35q-41 0 -69.5 -29t-67.5 -115l-352 -784q-90 -205 -90 -242zM969 1755q33 68 103.5 115t158.5 47q84 0 153.5 -48t112.5 -48q98 0 178 108l37 -84 q-25 -74 -93.5 -121t-141.5 -47q-76 0 -157 48.5t-136 48.5q-92 0 -174 -99z" />
<glyph unicode="&#xc4;" horiz-adv-x="1185" d="M244 143q0 61 127 353l325 731q70 158 180.5 230.5t286.5 72.5q102 0 167 -40t85 -95l55 123h306l-574 -1285q-2 -6 -2 -12q0 -14 23 -14q72 0 179 76.5t142 148.5l62 -84q-53 -121 -253 -237.5t-362 -116.5q-135 0 -135 143q0 16 4 45q-193 -188 -459 -188 q-157 -1 -157 149zM623 227q0 -49 41 -49q68 0 159.5 88t128.5 166l312 698q33 68 32 140q0 57 -24.5 92t-69.5 35q-41 0 -69.5 -29t-67.5 -115l-352 -784q-90 -205 -90 -242zM965 1780q0 66 80.5 120t173.5 54q57 0 98 -25.5t41 -66.5q0 -74 -84 -122t-172 -48 q-57 0 -97 24.5t-40 63.5zM1415 1780q0 66 82 120t174 54q55 0 96 -25.5t41 -66.5q0 -74 -83 -122t-171 -48q-57 0 -98 24.5t-41 63.5z" />
<glyph unicode="&#xc5;" horiz-adv-x="1185" d="M244 143q0 61 127 353l325 731q70 158 180.5 230.5t286.5 72.5q102 0 167 -40t85 -95l55 123h306l-574 -1285q-2 -6 -2 -12q0 -14 23 -14q72 0 179 76.5t142 148.5l62 -84q-53 -121 -253 -237.5t-362 -116.5q-135 0 -135 143q0 16 4 45q-193 -188 -459 -188 q-157 -1 -157 149zM623 227q0 -49 41 -49q68 0 159.5 88t128.5 166l312 698q33 68 32 140q0 57 -24.5 92t-69.5 35q-41 0 -69.5 -29t-67.5 -115l-352 -784q-90 -205 -90 -242zM1114 1755q0 109 79 202t189 93q90 0 143.5 -60.5t53.5 -150.5q0 -119 -85 -206t-185 -87 q-88 0 -141.5 60.5t-53.5 148.5zM1223 1769q0 -43 28.5 -74.5t73.5 -31.5q51 0 96 47t45 115q0 47 -26.5 78.5t-71.5 31.5q-55 0 -100 -52.5t-45 -113.5z" />
<glyph unicode="&#xc6;" horiz-adv-x="2088" d="M244 143q0 61 127 353l325 731q70 158 180.5 230.5t286.5 72.5q102 0 167 -40t85 -95l55 123h306l-574 -1285q-2 -6 -2 -12q0 -14 22.5 -14t69.5 14q14 199 168 379t371 227q-168 55 -168 222q0 223 177 352t441 129q162 0 223.5 -28.5t61.5 -104.5q0 -37 -8 -64 l-348 -127q20 27 38.5 73t18.5 64q0 31 -67 31q-66 0 -139.5 -106.5t-73.5 -220.5q0 -127 157 -187l-37 -86q-229 -76 -364 -241.5t-135 -303.5q0 -92 123 -92q150 0 324.5 89t228.5 206l61 -80q-57 -139 -267 -248.5t-417 -109.5q-274 0 -344 96q-182 -96 -326 -96 q-135 0 -135 143q0 16 4 45q-193 -188 -459 -188q-157 -1 -157 149zM623 227q0 -49 41 -49q68 0 159.5 88t128.5 166l312 698q33 68 32 140q0 57 -24.5 92t-69.5 35q-41 0 -69.5 -29t-67.5 -115l-352 -784q-90 -199 -90 -242z" />
<glyph unicode="&#xc7;" horiz-adv-x="1048" d="M279 184q0 90 106 332l293 653q88 195 224 278t355 83q160 0 229.5 -30t69.5 -103q0 -33 -8 -64l-346 -127q18 27 36.5 73t18.5 64q0 31 -65 31q-41 0 -67.5 -17.5t-49.5 -70.5l-405 -909q-80 -180 -80 -203q0 -35 74 -35q186 0 371.5 87t238.5 206l63 -80 q-51 -111 -209 -211q-229 -147 -479 -147q-55 0 -90 1t-94 11t-95 28.5t-63.5 57.5t-27.5 92zM444 -315l150 297l170 -111l-221 -254z" />
<glyph unicode="&#xc8;" horiz-adv-x="1091" d="M293 184q0 205 156.5 400.5t384.5 242.5q-168 57 -168 222q0 223 177 352t441 129q162 0 223.5 -28.5t61.5 -104.5q0 -37 -8 -64l-349 -127q20 27 39 72t19 65q0 31 -66 31q-68 0 -141.5 -106.5t-73.5 -220.5q0 -127 160 -187l-39 -86q-127 -41 -210 -100.5t-157 -147.5 q-59 -70 -95 -153.5t-36 -143.5q0 -92 121 -92q150 0 325 89t228 206l64 -80q-39 -92 -174 -188q-244 -170 -512 -170q-53 0 -89 1t-95.5 11t-95.5 28.5t-63.5 57.5t-27.5 92zM926 1911l194 139l232 -426l-103 -65z" />
<glyph unicode="&#xc9;" horiz-adv-x="1091" d="M293 184q0 205 156.5 400.5t384.5 242.5q-168 57 -168 222q0 223 177 352t441 129q162 0 223.5 -28.5t61.5 -104.5q0 -37 -8 -64l-349 -127q20 27 39 72t19 65q0 31 -66 31q-68 0 -141.5 -106.5t-73.5 -220.5q0 -127 160 -187l-39 -86q-127 -41 -210 -100.5t-157 -147.5 q-59 -70 -95 -153.5t-36 -143.5q0 -92 121 -92q150 0 325 89t228 206l64 -80q-39 -92 -174 -188q-244 -170 -512 -170q-53 0 -89 1t-95.5 11t-95.5 28.5t-63.5 57.5t-27.5 92zM1225 1636l311 414l168 -154l-397 -337z" />
<glyph unicode="&#xca;" horiz-adv-x="1091" d="M293 184q0 205 156.5 400.5t384.5 242.5q-168 57 -168 222q0 223 177 352t441 129q162 0 223.5 -28.5t61.5 -104.5q0 -37 -8 -64l-349 -127q20 27 39 72t19 65q0 31 -66 31q-68 0 -141.5 -106.5t-73.5 -220.5q0 -127 160 -187l-39 -86q-127 -41 -210 -100.5t-157 -147.5 q-59 -70 -95 -153.5t-36 -143.5q0 -92 121 -92q150 0 325 89t228 206l64 -80q-39 -92 -174 -188q-244 -170 -512 -170q-53 0 -89 1t-95.5 11t-95.5 28.5t-63.5 57.5t-27.5 92zM958 1694l330 356h148l200 -371l-106 -69l-199 213l-301 -213z" />
<glyph unicode="&#xcb;" horiz-adv-x="1091" d="M293 184q0 205 156.5 400.5t384.5 242.5q-168 57 -168 222q0 223 177 352t441 129q162 0 223.5 -28.5t61.5 -104.5q0 -37 -8 -64l-349 -127q20 27 39 72t19 65q0 31 -66 31q-68 0 -141.5 -106.5t-73.5 -220.5q0 -127 160 -187l-39 -86q-127 -41 -210 -100.5t-157 -147.5 q-59 -70 -95 -153.5t-36 -143.5q0 -92 121 -92q150 0 325 89t228 206l64 -80q-39 -92 -174 -188q-244 -170 -512 -170q-53 0 -89 1t-95.5 11t-95.5 28.5t-63.5 57.5t-27.5 92zM893 1780q0 66 81 120t173 54q57 0 98 -25.5t41 -66.5q0 -74 -84 -122t-172 -48q-57 0 -97 24.5 t-40 63.5zM1343 1780q0 66 82 120t174 54q55 0 96.5 -25.5t41.5 -66.5q0 -74 -83 -122t-171 -48q-57 0 -98.5 24.5t-41.5 63.5z" />
<glyph unicode="&#xcc;" horiz-adv-x="565" d="M164 0l577 1303q10 25 11 38q0 43 -84 43h-21q-63 0 -63 56q0 47 40 68.5t148 21.5q170 0 255 -32t85 -112q0 -49 -25 -104l-569 -1282h-354zM621 1911l194 139l232 -426l-103 -65z" />
<glyph unicode="&#xcd;" horiz-adv-x="565" d="M164 0l577 1303q10 25 11 38q0 43 -84 43h-21q-63 0 -63 56q0 47 40 68.5t148 21.5q170 0 255 -32t85 -112q0 -49 -25 -104l-569 -1282h-354zM864 1636l312 414l167 -154l-397 -337z" />
<glyph unicode="&#xce;" horiz-adv-x="565" d="M164 0l577 1303q10 25 11 38q0 43 -84 43h-21q-63 0 -63 56q0 47 40 68.5t148 21.5q170 0 255 -32t85 -112q0 -49 -25 -104l-569 -1282h-354zM621 1694l329 356h148l200 -371l-106 -69l-199 213l-301 -213z" />
<glyph unicode="&#xcf;" horiz-adv-x="565" d="M164 0l577 1303q10 25 11 38q0 43 -84 43h-21q-63 0 -63 56q0 47 40 68.5t148 21.5q170 0 255 -32t85 -112q0 -49 -25 -104l-569 -1282h-354zM588 1780q0 66 81 120t173 54q57 0 98 -25.5t41 -66.5q0 -74 -84 -122t-172 -48q-57 0 -97 24.5t-40 63.5zM1038 1780 q0 66 82 120t174 54q55 0 96.5 -25.5t41.5 -66.5q0 -74 -83 -122t-171 -48q-57 0 -98.5 24.5t-41.5 63.5z" />
<glyph unicode="&#xd0;" horiz-adv-x="1150" d="M162 0l325 731h-110l51 115h111l204 457q10 25 11 38q0 43 -84 43h-21q-63 0 -63 56q0 47 40 68.5t148 21.5q268 0 324 -82q131 82 291 82q133 0 222 -49t89 -123q0 -45 -55 -168l-312 -686q-121 -268 -310 -389t-499 -121q-313 0 -362 6zM592 168q12 -4 37 -4 q211 0 409 442l252 553q53 119 53 150q0 80 -94 80q-117 0 -168 -125l-186 -418h162l-49 -115h-164z" />
<glyph unicode="&#xd1;" horiz-adv-x="1196" d="M162 0l577 1303q10 25 11 38q0 43 -84 43h-21q-63 0 -63 56q0 47 40 68.5t148 21.5q328 0 338 -129q129 129 328 129q246 0 245 -166q0 -70 -45 -170l-424 -952q-4 -6 -4 -17q0 -18 29 -18q68 0 175.5 76.5t137.5 148.5l64 -84q-53 -123 -254 -238.5t-361 -115.5 q-74 0 -115.5 37t-41.5 94q0 39 20 92l484 1086q10 27 10 49q0 25 -31 24q-63 0 -160.5 -78.5t-142.5 -158.5l-506 -1139h-354zM940 1755q33 68 103.5 115t158.5 47q84 0 153.5 -48t112.5 -48q98 0 179 108l36 -84q-25 -74 -93 -121t-142 -47q-76 0 -157 48.5t-136 48.5 q-92 0 -174 -99z" />
<glyph unicode="&#xd2;" horiz-adv-x="1206" d="M256 184q0 41 27 109l415 934q133 303 512 303q123 0 197 -45q51 63 160 63q63 0 101 -29.5t38 -86.5q0 -76 -43 -138q29 -4 37 -4q90 0 196 66q2 2 9 2q12 0 12 -10q0 -8 -6 -21l-33 -84q-31 -41 -101.5 -70.5t-136.5 -29.5q-16 0 -41 4q-2 -39 -36 -115l-330 -739 q-63 -145 -218 -222t-378 -77q-381 0 -381 190zM643 276q0 -66 105 -65q109 0 161 121l369 825q25 55 25 103q0 51 -34 81.5t-77 30.5q-74 0 -115 -94l-420 -946q-14 -29 -14 -56zM958 1911l195 139l231 -426l-102 -65zM1481 1380q0 -55 63 -63q14 35 15 65q0 45 -29 45 q-49 0 -49 -47z" />
<glyph unicode="&#xd3;" horiz-adv-x="1206" d="M256 184q0 41 27 109l415 934q133 303 512 303q123 0 197 -45q51 63 160 63q63 0 101 -29.5t38 -86.5q0 -76 -43 -138q29 -4 37 -4q90 0 196 66q2 2 9 2q12 0 12 -10q0 -8 -6 -21l-33 -84q-31 -41 -101.5 -70.5t-136.5 -29.5q-16 0 -41 4q-2 -39 -36 -115l-330 -739 q-63 -145 -218 -222t-378 -77q-381 0 -381 190zM643 276q0 -66 105 -65q109 0 161 121l369 825q25 55 25 103q0 51 -34 81.5t-77 30.5q-74 0 -115 -94l-420 -946q-14 -29 -14 -56zM1219 1636l311 414l168 -154l-398 -337zM1481 1380q0 -55 63 -63q14 35 15 65q0 45 -29 45 q-49 0 -49 -47z" />
<glyph unicode="&#xd4;" horiz-adv-x="1206" d="M256 184q0 41 27 109l415 934q133 303 512 303q123 0 197 -45q51 63 160 63q63 0 101 -29.5t38 -86.5q0 -76 -43 -138q29 -4 37 -4q90 0 196 66q2 2 9 2q12 0 12 -10q0 -8 -6 -21l-33 -84q-31 -41 -101.5 -70.5t-136.5 -29.5q-16 0 -41 4q-2 -39 -36 -115l-330 -739 q-63 -145 -218 -222t-378 -77q-381 0 -381 190zM643 276q0 -66 105 -65q109 0 161 121l369 825q25 55 25 103q0 51 -34 81.5t-77 30.5q-74 0 -115 -94l-420 -946q-14 -29 -14 -56zM991 1694l330 356h147l201 -371l-106 -69l-199 213l-301 -213zM1481 1380q0 -55 63 -63 q14 35 15 65q0 45 -29 45q-49 0 -49 -47z" />
<glyph unicode="&#xd5;" horiz-adv-x="1206" d="M256 184q0 41 27 109l415 934q133 303 512 303q123 0 197 -45q51 63 160 63q63 0 101 -29.5t38 -86.5q0 -76 -43 -138q29 -4 37 -4q90 0 196 66q2 2 9 2q12 0 12 -10q0 -8 -6 -21l-33 -84q-31 -41 -101.5 -70.5t-136.5 -29.5q-16 0 -41 4q-2 -39 -36 -115l-330 -739 q-63 -145 -218 -222t-378 -77q-381 0 -381 190zM643 276q0 -66 105 -65q109 0 161 121l369 825q25 55 25 103q0 51 -34 81.5t-77 30.5q-74 0 -115 -94l-420 -946q-14 -29 -14 -56zM1001 1755q33 68 104 115t159 47q84 0 153.5 -48t112.5 -48q98 0 178 108l37 -84 q-25 -74 -93.5 -121t-142.5 -47q-76 0 -156.5 48.5t-135.5 48.5q-92 0 -175 -99zM1481 1380q0 -55 63 -63q14 35 15 65q0 45 -29 45q-49 0 -49 -47z" />
<glyph unicode="&#xd6;" horiz-adv-x="1206" d="M256 184q0 41 27 109l415 934q133 303 512 303q123 0 197 -45q51 63 160 63q63 0 101 -29.5t38 -86.5q0 -76 -43 -138q29 -4 37 -4q90 0 196 66q2 2 9 2q12 0 12 -10q0 -8 -6 -21l-33 -84q-31 -41 -101.5 -70.5t-136.5 -29.5q-16 0 -41 4q-2 -39 -36 -115l-330 -739 q-63 -145 -218 -222t-378 -77q-381 0 -381 190zM643 276q0 -66 105 -65q109 0 161 121l369 825q25 55 25 103q0 51 -34 81.5t-77 30.5q-74 0 -115 -94l-420 -946q-14 -29 -14 -56zM952 1780q0 66 81 120t173 54q57 0 98.5 -25.5t41.5 -66.5q0 -74 -84 -122t-172 -48 q-57 0 -97.5 24.5t-40.5 63.5zM1403 1780q0 66 82 120t174 54q55 0 96 -25.5t41 -66.5q0 -74 -83 -122t-171 -48q-57 0 -98 24.5t-41 63.5zM1481 1380q0 -55 63 -63q14 35 15 65q0 45 -29 45q-49 0 -49 -47z" />
<glyph unicode="&#xd7;" horiz-adv-x="860" d="M354 270l269 305l-215 308l90 104l219 -307l272 307l78 -110l-270 -308l217 -305l-92 -102l-215 305l-275 -305z" />
<glyph unicode="&#xd8;" horiz-adv-x="1206" d="M63 -109l207 228q-14 27 -14 65q0 41 27 109l415 934q133 303 512 303q123 0 197 -45q51 63 176 63l170 187l111 -99l-162 -176q4 -20 4 -28q0 -76 -43 -138q29 -4 37 -4q90 0 196 66q2 2 9 2q12 0 12 -10q0 -8 -6 -21l-33 -84q-31 -41 -101.5 -70.5t-136.5 -29.5 q-16 0 -41 4q-2 -39 -36 -115l-330 -739q-63 -145 -218 -222t-378 -77q-160 0 -250 33l-215 -234zM643 276q0 -66 105 -65q109 0 161 121l230 516l-492 -537q-4 -12 -4 -35zM834 733l469 510v17q0 51 -34 81.5t-77 30.5q-74 0 -115 -94z" />
<glyph unicode="&#xd9;" horiz-adv-x="1198" d="M254 143q0 63 37 150l450 1010q10 25 11 38q0 43 -84 43h-21q-63 0 -63 56q0 47 40 68.5t148 21.5q170 0 255 -32t85 -112q0 -49 -25 -104l-475 -1071q-8 -14 -8 -27q0 -20 25 -20q23 0 78 22q162 78 239 213l502 1125h340l-576 -1286q-4 -10 -4 -17q0 -14 25 -14 q72 0 180.5 76.5t138.5 148.5l64 -84q-33 -76 -137.5 -160t-229.5 -139t-215 -55q-88 0 -131 42t-43 111v25q-190 -178 -448 -178q-158 -1 -158 149zM926 1911l194 139l232 -426l-103 -65z" />
<glyph unicode="&#xda;" horiz-adv-x="1198" d="M254 143q0 63 37 150l450 1010q10 25 11 38q0 43 -84 43h-21q-63 0 -63 56q0 47 40 68.5t148 21.5q170 0 255 -32t85 -112q0 -49 -25 -104l-475 -1071q-8 -14 -8 -27q0 -20 25 -20q23 0 78 22q162 78 239 213l502 1125h340l-576 -1286q-4 -10 -4 -17q0 -14 25 -14 q72 0 180.5 76.5t138.5 148.5l64 -84q-33 -76 -137.5 -160t-229.5 -139t-215 -55q-88 0 -131 42t-43 111v25q-190 -178 -448 -178q-158 -1 -158 149zM1212 1636l312 414l168 -154l-398 -337z" />
<glyph unicode="&#xdb;" horiz-adv-x="1198" d="M254 143q0 63 37 150l450 1010q10 25 11 38q0 43 -84 43h-21q-63 0 -63 56q0 47 40 68.5t148 21.5q170 0 255 -32t85 -112q0 -49 -25 -104l-475 -1071q-8 -14 -8 -27q0 -20 25 -20q23 0 78 22q162 78 239 213l502 1125h340l-576 -1286q-4 -10 -4 -17q0 -14 25 -14 q72 0 180.5 76.5t138.5 148.5l64 -84q-33 -76 -137.5 -160t-229.5 -139t-215 -55q-88 0 -131 42t-43 111v25q-190 -178 -448 -178q-158 -1 -158 149zM963 1694l329 356h148l200 -371l-106 -69l-199 213l-301 -213z" />
<glyph unicode="&#xdc;" horiz-adv-x="1198" d="M254 143q0 63 37 150l450 1010q10 25 11 38q0 43 -84 43h-21q-63 0 -63 56q0 47 40 68.5t148 21.5q170 0 255 -32t85 -112q0 -49 -25 -104l-475 -1071q-8 -14 -8 -27q0 -20 25 -20q23 0 78 22q162 78 239 213l502 1125h340l-576 -1286q-4 -10 -4 -17q0 -14 25 -14 q72 0 180.5 76.5t138.5 148.5l64 -84q-33 -76 -137.5 -160t-229.5 -139t-215 -55q-88 0 -131 42t-43 111v25q-190 -178 -448 -178q-158 -1 -158 149zM920 1780q0 66 80.5 120t173.5 54q57 0 98 -25.5t41 -66.5q0 -74 -84 -122t-172 -48q-57 0 -97 24.5t-40 63.5zM1370 1780 q0 66 82 120t174 54q55 0 96 -25.5t41 -66.5q0 -74 -83 -122t-171 -48q-57 0 -98 24.5t-41 63.5z" />
<glyph unicode="&#xdd;" horiz-adv-x="1198" d="M344 367q0 63 37 149l350 787q10 25 10 38q0 43 -82 43h-22q-63 0 -64 56q0 47 40 68.5t149 21.5q170 0 256 -32t86 -112q0 -45 -27 -104l-375 -850q-8 -14 -8 -24q0 -23 25 -23q27 0 78 25q164 78 239 211l402 903h340l-609 -1321q131 14 220 73q119 80 155 156l62 -80 q-47 -106 -205 -208.5t-309 -131.5q-160 -395 -471 -395q-104 0 -168 47t-64 133q0 139 125 240.5t336 150.5l80 187q-178 -154 -428 -154q-158 1 -158 146zM567 -182q0 -33 47 -33q33 0 54 31q70 88 102 200q-86 -25 -144.5 -82t-58.5 -116zM1196 1636l311 414l168 -154 l-397 -337z" />
<glyph unicode="&#xde;" horiz-adv-x="1052" d="M164 0l315 715q-43 -35 -63 -88l-62 82q47 115 219 219l168 375q10 25 11 38q0 43 -84 43h-21q-63 0 -63 56q0 47 40 68.5t148 21.5q170 0 255 -32t85 -112q0 -53 -25 -104l-100 -225q59 8 141 8q252 0 252 -170q0 -82 -65 -231l-74 -168q-74 -166 -189.5 -238 t-287.5 -72q-115 0 -150 33l-96 -219h-354zM725 459l104 37q-57 -90 -57 -138q0 -29 39 -28q29 0 45 14t37 59l176 392q27 57 27 90q0 39 -49 39q-74 0 -119 -9z" />
<glyph unicode="&#xdf;" horiz-adv-x="1032" d="M-8 -377l745 1669q59 135 182 189.5t338 54.5q420 0 420 -176q0 -164 -152.5 -328t-338.5 -205q170 -49 170 -211q0 -63 -84 -247q-156 -352 -666 -443l53 137q201 119 297 314q43 88 52.5 125t9.5 92q0 78 -35 119t-123 61l-512 -1151h-356zM899 860q246 92 356 236 q88 111 88 213q0 86 -94 86q-111 0 -168 -131z" />
<glyph unicode="&#xe0;" horiz-adv-x="983" d="M258 164q0 117 96 303q117 233 221.5 319t233.5 86t178 -81l21 47h243l-215 -482q-41 -96 -41 -110q0 -31 35 -31q68 0 172.5 77t134.5 140l64 -80q-59 -127 -258 -242.5t-361 -115.5q-72 0 -86 78q-90 -78 -245 -78q-86 0 -139.5 44t-53.5 126zM541 172q0 -33 28 -33 q47 0 90 90l197 445q4 8 4 26q0 29 -35 29q-51 0 -80 -67l-186 -420q-18 -37 -18 -70zM606 1253l195 140l231 -426l-102 -66z" />
<glyph unicode="&#xe1;" horiz-adv-x="983" d="M258 164q0 117 96 303q117 233 221.5 319t233.5 86t178 -81l21 47h243l-215 -482q-41 -96 -41 -110q0 -31 35 -31q68 0 172.5 77t134.5 140l64 -80q-59 -127 -258 -242.5t-361 -115.5q-72 0 -86 78q-90 -78 -245 -78q-86 0 -139.5 44t-53.5 126zM541 172q0 -33 28 -33 q47 0 90 90l197 445q4 8 4 26q0 29 -35 29q-51 0 -80 -67l-186 -420q-18 -37 -18 -70zM854 979l311 414l168 -154l-397 -338z" />
<glyph unicode="&#xe2;" horiz-adv-x="983" d="M258 164q0 117 96 303q117 233 221.5 319t233.5 86t178 -81l21 47h243l-215 -482q-41 -96 -41 -110q0 -31 35 -31q68 0 172.5 77t134.5 140l64 -80q-59 -127 -258 -242.5t-361 -115.5q-72 0 -86 78q-90 -78 -245 -78q-86 0 -139.5 44t-53.5 126zM541 172q0 -33 28 -33 q47 0 90 90l197 445q4 8 4 26q0 29 -35 29q-51 0 -80 -67l-186 -420q-18 -37 -18 -70zM616 1036l330 357h148l200 -371l-106 -70l-199 213l-301 -213z" />
<glyph unicode="&#xe3;" horiz-adv-x="983" d="M258 164q0 117 96 303q117 233 221.5 319t233.5 86t178 -81l21 47h243l-215 -482q-41 -96 -41 -110q0 -31 35 -31q68 0 172.5 77t134.5 140l64 -80q-59 -127 -258 -242.5t-361 -115.5q-72 0 -86 78q-90 -78 -245 -78q-86 0 -139.5 44t-53.5 126zM541 172q0 -33 28 -33 q47 0 90 90l197 445q4 8 4 26q0 29 -35 29q-51 0 -80 -67l-186 -420q-18 -37 -18 -70zM637 1098q33 68 103.5 115t158.5 47q84 0 153.5 -48.5t112.5 -48.5q98 0 178 109l37 -84q-25 -74 -93 -121t-142 -47q-76 0 -157 48t-136 48q-92 0 -174 -98z" />
<glyph unicode="&#xe4;" horiz-adv-x="983" d="M258 164q0 117 96 303q117 233 221.5 319t233.5 86t178 -81l21 47h243l-215 -482q-41 -96 -41 -110q0 -31 35 -31q68 0 172.5 77t134.5 140l64 -80q-59 -127 -258 -242.5t-361 -115.5q-72 0 -86 78q-90 -78 -245 -78q-86 0 -139.5 44t-53.5 126zM541 172q0 -33 28 -33 q47 0 90 90l197 445q4 8 4 26q0 29 -35 29q-51 0 -80 -67l-186 -420q-18 -37 -18 -70zM594 1122q0 66 81 120t173 54q57 0 98 -25.5t41 -66.5q0 -74 -84 -122t-172 -48q-57 0 -97 24.5t-40 63.5zM1044 1122q0 66 82 120t174 54q55 0 96.5 -25.5t41.5 -66.5q0 -74 -83 -122 t-171 -48q-57 0 -98.5 24.5t-41.5 63.5z" />
<glyph unicode="&#xe5;" horiz-adv-x="983" d="M258 164q0 117 96 303q117 233 221.5 319t233.5 86t178 -81l21 47h243l-215 -482q-41 -96 -41 -110q0 -31 35 -31q68 0 172.5 77t134.5 140l64 -80q-59 -127 -258 -242.5t-361 -115.5q-72 0 -86 78q-90 -78 -245 -78q-86 0 -139.5 44t-53.5 126zM541 172q0 -33 28 -33 q47 0 90 90l197 445q4 8 4 26q0 29 -35 29q-51 0 -80 -67l-186 -420q-18 -37 -18 -70zM778 1098q0 109 79 202t190 93q90 0 143 -60.5t53 -150.5q0 -119 -85 -206t-185 -87q-88 0 -141.5 60.5t-53.5 148.5zM887 1112q0 -43 28.5 -74.5t73.5 -31.5q51 0 96 47t45 114 q0 47 -26.5 79t-71.5 32q-55 0 -100 -52.5t-45 -113.5z" />
<glyph unicode="&#xe6;" horiz-adv-x="1292" d="M258 164q0 57 29 149q70 215 340 215q119 0 147 -36l82 182q4 8 4 26q0 29 -35 29q-57 0 -96 -22.5t-84 -92.5l-201 74q88 109 172 146.5t193 37.5q180 0 217 -81q78 82 303 81q154 0 210 -31.5t56 -99.5q0 -137 -79 -243q-94 -129 -474 -150q-51 -104 -51 -153 q0 -55 74 -56q168 0 339 86t243 207l61 -80q-43 -98 -174 -188q-242 -170 -504 -170q-119 0 -167 15.5t-87 62.5q-90 -78 -272 -78q-246 0 -246 170zM541 172q0 -33 28 -33q47 0 90 90l72 166q-27 23 -51 23q-45 0 -68 -56l-53 -120q-18 -37 -18 -70zM1083 457 q92 8 154.5 77.5t62.5 167.5q0 27 -40 27q-27 0 -45.5 -16.5t-40.5 -63.5z" />
<glyph unicode="&#xe7;" d="M268 166q0 84 64 229l76 170q72 164 189.5 235.5t305.5 71.5q150 0 211.5 -25.5t61.5 -98.5q0 -23 -11 -58l-348 -125q57 78 57 137q0 27 -38 27q-45 0 -68 -43l-201 -444q-14 -35 -14 -68q0 -41 74 -41q211 0 405 115q139 80 199 184l63 -80q-37 -82 -139 -159 q-260 -199 -549 -199q-176 0 -257 34t-81 138zM371 -315l149 297l170 -111l-221 -254z" />
<glyph unicode="&#xe8;" horiz-adv-x="868" d="M270 166q0 84 64 229l76 170q74 170 183 238.5t314 68.5q152 0 208 -31.5t56 -99.5q0 -139 -77 -243q-96 -129 -476 -150q-51 -113 -51 -153q0 -55 76 -56q168 0 339 86t241 207l63 -80q-49 -102 -176 -188q-123 -88 -239.5 -129t-262.5 -41q-180 0 -259 33t-79 139z M621 1253l194 140l232 -426l-103 -66zM662 457q92 8 153.5 77.5t61.5 167.5q0 27 -39 27q-51 0 -86 -80z" />
<glyph unicode="&#xe9;" horiz-adv-x="868" d="M270 166q0 84 64 229l76 170q74 170 183 238.5t314 68.5q152 0 208 -31.5t56 -99.5q0 -139 -77 -243q-96 -129 -476 -150q-51 -113 -51 -153q0 -55 76 -56q168 0 339 86t241 207l63 -80q-49 -102 -176 -188q-123 -88 -239.5 -129t-262.5 -41q-180 0 -259 33t-79 139z M662 457q92 8 153.5 77.5t61.5 167.5q0 27 -39 27q-51 0 -86 -80zM838 979l311 414l168 -154l-397 -338z" />
<glyph unicode="&#xea;" horiz-adv-x="868" d="M270 166q0 84 64 229l76 170q74 170 183 238.5t314 68.5q152 0 208 -31.5t56 -99.5q0 -139 -77 -243q-96 -129 -476 -150q-51 -113 -51 -153q0 -55 76 -56q168 0 339 86t241 207l63 -80q-49 -102 -176 -188q-123 -88 -239.5 -129t-262.5 -41q-180 0 -259 33t-79 139z M600 1036l330 357h147l201 -371l-107 -70l-198 213l-301 -213zM662 457q92 8 153.5 77.5t61.5 167.5q0 27 -39 27q-51 0 -86 -80z" />
<glyph unicode="&#xeb;" horiz-adv-x="868" d="M270 166q0 84 64 229l76 170q74 170 183 238.5t314 68.5q152 0 208 -31.5t56 -99.5q0 -139 -77 -243q-96 -129 -476 -150q-51 -113 -51 -153q0 -55 76 -56q168 0 339 86t241 207l63 -80q-49 -102 -176 -188q-123 -88 -239.5 -129t-262.5 -41q-180 0 -259 33t-79 139z M578 1122q0 66 80.5 120t172.5 54q57 0 98.5 -25.5t41.5 -66.5q0 -74 -84 -122t-172 -48q-57 0 -97 24.5t-40 63.5zM662 457q92 8 153.5 77.5t61.5 167.5q0 27 -39 27q-51 0 -86 -80zM1028 1122q0 66 82 120t174 54q55 0 96 -25.5t41 -66.5q0 -74 -83 -122t-171 -48 q-57 0 -98 24.5t-41 63.5z" />
<glyph unicode="&#xec;" horiz-adv-x="587" d="M238 127q0 49 26 102l305 684l258 -141l-217 -489q-10 -25 -10 -37q0 -31 35 -31q68 0 172 77t135 140l64 -80q-55 -123 -255 -240.5t-364 -117.5q-66 0 -107.5 36t-41.5 97zM442 1253l195 140l231 -426l-102 -66z" />
<glyph unicode="&#xed;" horiz-adv-x="587" d="M238 127q0 49 26 102l305 684l258 -141l-217 -489q-10 -25 -10 -37q0 -31 35 -31q68 0 172 77t135 140l64 -80q-55 -123 -255 -240.5t-364 -117.5q-66 0 -107.5 36t-41.5 97zM682 979l311 414l168 -154l-397 -338z" />
<glyph unicode="&#xee;" horiz-adv-x="587" d="M238 127q0 49 26 102l305 684l258 -141l-217 -489q-10 -25 -10 -37q0 -31 35 -31q68 0 172 77t135 140l64 -80q-55 -123 -255 -240.5t-364 -117.5q-66 0 -107.5 36t-41.5 97zM444 1036l330 357h148l200 -371l-106 -70l-199 213l-301 -213z" />
<glyph unicode="&#xef;" horiz-adv-x="587" d="M238 127q0 49 26 102l305 684l258 -141l-217 -489q-10 -25 -10 -37q0 -31 35 -31q68 0 172 77t135 140l64 -80q-55 -123 -255 -240.5t-364 -117.5q-66 0 -107.5 36t-41.5 97zM397 1122q0 66 81 120t173 54q57 0 98.5 -25.5t41.5 -66.5q0 -74 -84 -122t-172 -48 q-57 0 -97.5 24.5t-40.5 63.5zM848 1122q0 66 82 120t174 54q55 0 96 -25.5t41 -66.5q0 -74 -83 -122t-171 -48q-57 0 -98 24.5t-41 63.5z" />
<glyph unicode="&#xf0;" horiz-adv-x="806" d="M258 156q0 106 96 315q147 324 391 324q106 0 156 -50q70 152 105 338l-289 -71l-27 102l326 82q0 82 -15.5 114.5t-50.5 32.5q-29 0 -76 -20q-25 -14 -45 -14q-18 0 -29.5 16t-11.5 37q0 43 37 68q160 100 357 100q150 0 149 -176q0 -23 -4 -80l109 29l26 -103l-151 -39 q-47 -279 -262 -758q-102 -229 -228.5 -319t-331.5 -90q-119 0 -175 38t-56 124zM526 160q0 -37 35 -37q55 0 90 76l172 383q16 37 17 49q0 29 -37 28q-57 0 -90 -65l-176 -395q-11 -25 -11 -39z" />
<glyph unicode="&#xf1;" horiz-adv-x="1028" d="M162 0l405 913l215 -112q74 72 269 71q78 0 119.5 -40.5t41.5 -112.5q0 -47 -21.5 -111.5t-75.5 -182.5t-60 -132q-14 -29 -15 -47q0 -31 37 -31q66 0 171.5 77t133.5 140l64 -80q-53 -123 -256 -240.5t-363 -117.5q-70 0 -109.5 36t-39.5 95q0 43 39 137t101.5 223 t84.5 181q10 31 10 47q0 25 -28 24q-59 0 -78 -51l-303 -686h-342zM606 1098q33 68 103.5 115t158.5 47q84 0 154 -48.5t113 -48.5q98 0 178 109l37 -84q-25 -74 -93.5 -121t-142.5 -47q-76 0 -156.5 48t-136.5 48q-92 0 -174 -98z" />
<glyph unicode="&#xf2;" d="M254 158q0 74 51 182l94 205q82 178 180.5 252.5t223.5 74.5q59 0 84 -6q74 68 182 68q135 0 135 -111q0 -57 -37 -137q45 -10 66 -10q92 0 184 69l53 -71q-113 -119 -352 -144q-68 -174 -133 -283.5t-140 -163.5t-146.5 -71.5t-176.5 -17.5q-268 0 -268 164zM537 1253 l194 140l232 -426l-103 -66zM543 162q0 -39 35 -39q49 0 79 59l191 430q-39 25 -39 86q0 18 2 29q-39 -20 -70 -94l-188 -430q-10 -23 -10 -41zM983 764q0 -59 66 -59q16 25 16 59q0 47 -33 47q-49 0 -49 -47z" />
<glyph unicode="&#xf3;" d="M254 158q0 74 51 182l94 205q82 178 180.5 252.5t223.5 74.5q59 0 84 -6q74 68 182 68q135 0 135 -111q0 -57 -37 -137q45 -10 66 -10q92 0 184 69l53 -71q-113 -119 -352 -144q-68 -174 -133 -283.5t-140 -163.5t-146.5 -71.5t-176.5 -17.5q-268 0 -268 164zM543 162 q0 -39 35 -39q49 0 79 59l191 430q-39 25 -39 86q0 18 2 29q-39 -20 -70 -94l-188 -430q-10 -23 -10 -41zM795 979l311 414l168 -154l-397 -338zM983 764q0 -59 66 -59q16 25 16 59q0 47 -33 47q-49 0 -49 -47z" />
<glyph unicode="&#xf4;" d="M254 158q0 74 51 182l94 205q82 178 180.5 252.5t223.5 74.5q59 0 84 -6q74 68 182 68q135 0 135 -111q0 -57 -37 -137q45 -10 66 -10q92 0 184 69l53 -71q-113 -119 -352 -144q-68 -174 -133 -283.5t-140 -163.5t-146.5 -71.5t-176.5 -17.5q-268 0 -268 164zM543 162 q0 -39 35 -39q49 0 79 59l191 430q-39 25 -39 86q0 18 2 29q-39 -20 -70 -94l-188 -430q-10 -23 -10 -41zM616 1036l330 357h148l200 -371l-106 -70l-199 213l-301 -213zM983 764q0 -59 66 -59q16 25 16 59q0 47 -33 47q-49 0 -49 -47z" />
<glyph unicode="&#xf5;" d="M254 158q0 74 51 182l94 205q82 178 180.5 252.5t223.5 74.5q59 0 84 -6q74 68 182 68q135 0 135 -111q0 -57 -37 -137q45 -10 66 -10q92 0 184 69l53 -71q-113 -119 -352 -144q-68 -174 -133 -283.5t-140 -163.5t-146.5 -71.5t-176.5 -17.5q-268 0 -268 164zM543 162 q0 -39 35 -39q49 0 79 59l191 430q-39 25 -39 86q0 18 2 29q-39 -20 -70 -94l-188 -430q-10 -23 -10 -41zM631 1098q33 68 103.5 115t158.5 47q84 0 153.5 -48.5t112.5 -48.5q98 0 178 109l37 -84q-25 -74 -93.5 -121t-141.5 -47q-76 0 -157 48t-136 48q-92 0 -174 -98z M983 764q0 -59 66 -59q16 25 16 59q0 47 -33 47q-49 0 -49 -47z" />
<glyph unicode="&#xf6;" d="M254 158q0 74 51 182l94 205q82 178 180.5 252.5t223.5 74.5q59 0 84 -6q74 68 182 68q135 0 135 -111q0 -57 -37 -137q45 -10 66 -10q92 0 184 69l53 -71q-113 -119 -352 -144q-68 -174 -133 -283.5t-140 -163.5t-146.5 -71.5t-176.5 -17.5q-268 0 -268 164zM543 162 q0 -39 35 -39q49 0 79 59l191 430q-39 25 -39 86q0 18 2 29q-39 -20 -70 -94l-188 -430q-10 -23 -10 -41zM565 1122q0 66 81 120t173 54q57 0 98 -25.5t41 -66.5q0 -74 -83.5 -122t-172.5 -48q-57 0 -97 24.5t-40 63.5zM983 764q0 -59 66 -59q16 25 16 59q0 47 -33 47 q-49 0 -49 -47zM1016 1122q0 66 82 120t174 54q55 0 96 -25.5t41 -66.5q0 -74 -83 -122t-171 -48q-57 0 -98 24.5t-41 63.5z" />
<glyph unicode="&#xf7;" horiz-adv-x="731" d="M354 512l15 137h571l-16 -137h-570zM465 231q0 68 50 122.5t108 54.5q43 0 67.5 -29t24.5 -72q0 -70 -51.5 -121t-108.5 -51q-90 0 -90 96zM592 848q0 66 52 117t110 51q43 0 67.5 -31t24.5 -74q0 -68 -53.5 -115.5t-110.5 -47.5q-90 0 -90 100z" />
<glyph unicode="&#xf8;" d="M63 -109l197 215q-6 25 -6 52q0 74 51 182l94 205q82 178 180.5 252.5t223.5 74.5q59 0 84 -6q51 51 129 64l166 178l110 -98l-108 -117q20 -27 20 -70q0 -57 -37 -137q45 -10 66 -10q92 0 184 69l53 -71q-113 -119 -352 -144q-68 -174 -133 -283.5t-140 -163.5 t-146.5 -71.5t-176.5 -17.5q-92 0 -149 18l-201 -219zM518 156q0 -23 13.5 -38.5t38 -15.5t56 16.5t42.5 43.5l135 317l-283 -307q-2 -4 -2 -16zM692 575l127 138q-2 8 -2 20q0 20 4 29q-82 -37 -129 -187z" />
<glyph unicode="&#xf9;" horiz-adv-x="995" d="M262 150q0 84 51 198l217 490h308l-267 -596q-16 -39 -16 -70q0 -33 29 -33q45 0 86 90l303 684l260 -141l-217 -489q-8 -16 -8 -37q0 -31 36 -31q63 0 169 76t137 141l61 -80q-51 -115 -242.5 -236.5t-326.5 -121.5q-106 0 -131 78q-100 -78 -267 -78q-182 0 -182 156z M526 1253l195 140l231 -426l-102 -66z" />
<glyph unicode="&#xfa;" horiz-adv-x="995" d="M262 150q0 84 51 198l217 490h308l-267 -596q-16 -39 -16 -70q0 -33 29 -33q45 0 86 90l303 684l260 -141l-217 -489q-8 -16 -8 -37q0 -31 36 -31q63 0 169 76t137 141l61 -80q-51 -115 -242.5 -236.5t-326.5 -121.5q-106 0 -131 78q-100 -78 -267 -78q-182 0 -182 156z M793 979l311 414l168 -154l-398 -338z" />
<glyph unicode="&#xfb;" horiz-adv-x="995" d="M262 150q0 84 51 198l217 490h308l-267 -596q-16 -39 -16 -70q0 -33 29 -33q45 0 86 90l303 684l260 -141l-217 -489q-8 -16 -8 -37q0 -31 36 -31q63 0 169 76t137 141l61 -80q-51 -115 -242.5 -236.5t-326.5 -121.5q-106 0 -131 78q-100 -78 -267 -78q-182 0 -182 156z M588 1036l330 357h147l201 -371l-107 -70l-198 213l-302 -213z" />
<glyph unicode="&#xfc;" horiz-adv-x="995" d="M262 150q0 84 51 198l217 490h308l-267 -596q-16 -39 -16 -70q0 -33 29 -33q45 0 86 90l303 684l260 -141l-217 -489q-8 -16 -8 -37q0 -31 36 -31q63 0 169 76t137 141l61 -80q-51 -115 -242.5 -236.5t-326.5 -121.5q-106 0 -131 78q-100 -78 -267 -78q-182 0 -182 156z M557 1122q0 66 81 120t173 54q57 0 98 -25.5t41 -66.5q0 -74 -84 -122t-172 -48q-57 0 -97 24.5t-40 63.5zM1008 1122q0 66 81.5 120t174.5 54q55 0 96 -25.5t41 -66.5q0 -74 -83 -122t-171 -48q-57 0 -98 24.5t-41 63.5z" />
<glyph unicode="&#xfd;" horiz-adv-x="995" d="M162 -233q0 106 89 191t216 116q-152 29 -152 188q0 92 52 205l198 446l242 -141l-195 -438q-16 -37 -16 -62q0 -29 25 -28q55 0 81 61l289 647l242 -180l-203 -453q-23 -45 -22 -73q0 -31 34 -31q63 0 170 77t138 140l61 -80q-43 -98 -188.5 -198.5t-241.5 -100.5 q-33 0 -61 17l-84 -195q-109 -258 -443 -258q-231 0 -231 150zM387 -188q0 -27 35 -27q33 0 51 35q35 57 105 237q-113 -78 -142 -131q-49 -85 -49 -114zM764 979l311 414l168 -154l-397 -338z" />
<glyph unicode="&#xfe;" horiz-adv-x="942" d="M-8 -377l848 1901h340l-312 -701q57 49 142 49q156 0 155 -172q0 -31 -5 -60.5t-19.5 -70.5t-21.5 -58t-31.5 -71.5t-26.5 -60.5q-6 -18 -6 -37q0 -39 51 -39q53 0 104.5 34t85.5 95l62 -80q-29 -68 -117 -141.5t-207 -73.5q-66 0 -100 49q-139 -193 -326 -192 q-76 0 -102 31l-178 -402h-336zM582 170q0 -37 32 -37q45 0 93 96l204 459q2 6 2 14q0 27 -39 27q-47 0 -65 -43l-217 -477q-10 -21 -10 -39z" />
<glyph unicode="&#xff;" horiz-adv-x="995" d="M162 -233q0 106 89 191t216 116q-152 29 -152 188q0 92 52 205l198 446l242 -141l-195 -438q-16 -37 -16 -62q0 -29 25 -28q55 0 81 61l289 647l242 -180l-203 -453q-23 -45 -22 -73q0 -31 34 -31q63 0 170 77t138 140l61 -80q-43 -98 -188.5 -198.5t-241.5 -100.5 q-33 0 -61 17l-84 -195q-109 -258 -443 -258q-231 0 -231 150zM387 -188q0 -27 35 -27q33 0 51 35q35 57 105 237q-113 -78 -142 -131q-49 -85 -49 -114zM582 1122q0 66 80.5 120t173.5 54q57 0 98 -25.5t41 -66.5q0 -74 -84 -122t-172 -48q-57 0 -97 24.5t-40 63.5z M1032 1122q0 66 82 120t174 54q55 0 96 -25.5t41 -66.5q0 -74 -82.5 -122t-171.5 -48q-57 0 -98 24.5t-41 63.5z" />
<glyph unicode="&#x152;" horiz-adv-x="2058" d="M256 184q0 41 27 109l415 934q133 303 512 303q123 0 197 -45q51 63 160 63q63 0 101 -29.5t38 -86.5q0 -76 -43 -138q29 -4 37 -4h4q78 115 222.5 177.5t324.5 62.5q164 0 224 -28.5t60 -104.5q0 -33 -6 -64l-348 -127q18 27 36.5 73t18.5 64q0 31 -65.5 31t-140 -107.5 t-74.5 -219.5q0 -127 160 -187l-37 -86q-231 -76 -365.5 -241.5t-134.5 -303.5q0 -92 121 -92q152 0 327 89t226 206l63 -80q-57 -139 -268 -248.5t-416 -109.5q-45 0 -73.5 1t-78.5 6t-83 17.5t-68 33t-52 54t-17 78.5q0 205 157.5 400.5t382.5 242.5q-166 55 -166 222 q0 53 8 94h-2q-16 0 -41 4q-2 -39 -36 -115l-330 -739q-63 -145 -218 -222t-378 -77q-381 0 -381 190zM643 276q0 -66 105 -65q109 0 161 121l369 825q25 55 25 103q0 51 -34 81.5t-77 30.5q-74 0 -115 -94l-420 -946q-14 -29 -14 -56zM1481 1380q0 -55 63 -63q14 35 15 65 q0 45 -29 45q-49 0 -49 -47z" />
<glyph unicode="&#x153;" horiz-adv-x="1282" d="M254 158q0 74 51 182l94 205q82 178 181.5 252.5t230.5 74.5q176 0 240 -63q102 63 268 63q154 0 210 -31.5t56 -99.5q0 -137 -80 -243q-96 -131 -452 -150q-51 -104 -52 -153q0 -55 74 -56q168 0 329 85t232 208l62 -80q-43 -98 -174 -188q-242 -170 -504 -170 q-158 0 -227 65q-94 -66 -271 -65q-268 0 -268 164zM543 162q0 -39 35 -39q49 0 79 59l191 430q23 55 22 78q0 37 -47 37q-43 0 -82 -94l-188 -430q-10 -23 -10 -41zM1073 457q94 8 155.5 77.5t61.5 167.5q0 27 -39 27q-29 0 -46 -15.5t-42 -64.5z" />
<glyph unicode="&#x178;" horiz-adv-x="1198" d="M344 367q0 63 37 149l350 787q10 25 10 38q0 43 -82 43h-22q-63 0 -64 56q0 47 40 68.5t149 21.5q170 0 256 -32t86 -112q0 -45 -27 -104l-375 -850q-8 -14 -8 -24q0 -23 25 -23q27 0 78 25q164 78 239 211l402 903h340l-609 -1321q131 14 220 73q119 80 155 156l62 -80 q-47 -106 -205 -208.5t-309 -131.5q-160 -395 -471 -395q-104 0 -168 47t-64 133q0 139 125 240.5t336 150.5l80 187q-178 -154 -428 -154q-158 1 -158 146zM567 -182q0 -33 47 -33q33 0 54 31q70 88 102 200q-86 -25 -144.5 -82t-58.5 -116zM926 1780q0 66 80.5 120 t173.5 54q57 0 98 -25.5t41 -66.5q0 -74 -84 -122t-172 -48q-57 0 -97 24.5t-40 63.5zM1376 1780q0 66 82 120t174 54q55 0 96 -25.5t41 -66.5q0 -74 -82.5 -122t-170.5 -48q-57 0 -98.5 24.5t-41.5 63.5z" />
<glyph unicode="&#x2c6;" horiz-adv-x="657" d="M360 1036l330 357h148l200 -371l-106 -70l-199 213l-301 -213z" />
<glyph unicode="&#x2dc;" horiz-adv-x="743" d="M369 1098q33 68 103.5 115t158.5 47q84 0 153.5 -48.5t112.5 -48.5q98 0 178 109l37 -84q-25 -74 -93.5 -121t-141.5 -47q-76 0 -157 48t-136 48q-92 0 -174 -98z" />
<glyph unicode="&#x2000;" horiz-adv-x="1024" />
<glyph unicode="&#x2001;" horiz-adv-x="2050" />
<glyph unicode="&#x2002;" horiz-adv-x="1024" />
<glyph unicode="&#x2003;" horiz-adv-x="2050" />
<glyph unicode="&#x2004;" horiz-adv-x="681" />
<glyph unicode="&#x2005;" horiz-adv-x="512" />
<glyph unicode="&#x2006;" horiz-adv-x="339" />
<glyph unicode="&#x2007;" horiz-adv-x="339" />
<glyph unicode="&#x2008;" horiz-adv-x="256" />
<glyph unicode="&#x2009;" horiz-adv-x="409" />
<glyph unicode="&#x200a;" horiz-adv-x="112" />
<glyph unicode="&#x2010;" horiz-adv-x="536" d="M379 731l51 115h440l-49 -115h-442z" />
<glyph unicode="&#x2011;" horiz-adv-x="536" d="M379 731l51 115h440l-49 -115h-442z" />
<glyph unicode="&#x2012;" horiz-adv-x="536" d="M379 731l51 115h440l-49 -115h-442z" />
<glyph unicode="&#x2013;" horiz-adv-x="851" d="M379 731l51 115h756l-49 -115h-758z" />
<glyph unicode="&#x2014;" horiz-adv-x="1284" d="M379 731l51 115h1188l-49 -115h-1190z" />
<glyph unicode="&#x2018;" horiz-adv-x="634" d="M731 1288.5q0 112.5 79 177t196 64.5q57 0 97 -24.5t40 -63.5q0 -72 -78 -125t-158 -53q-14 0 -39 4q-4 -16 -4 -23q0 -51 60 -65l-47 -54q-146 50 -146 162.5z" />
<glyph unicode="&#x2019;" horiz-adv-x="634" d="M748 1360q0 70 82.5 120t175.5 50q57 0 97 -24.5t40 -73.5q0 -90 -111 -179q-106 -80 -250 -114l-14 45q113 33 139 90q-29 -4 -41 -4q-55 0 -86.5 23.5t-31.5 66.5z" />
<glyph unicode="&#x201a;" horiz-adv-x="634" d="M356 86q0 70 83 120t175 50q57 0 97.5 -24.5t40.5 -73.5q0 -90 -111 -178q-100 -78 -250 -115l-14 45q111 29 139 90q-29 -4 -41 -4q-119 0 -119 90z" />
<glyph unicode="&#x201c;" horiz-adv-x="1073" d="M731 1288.5q0 112.5 79 177t196 64.5q57 0 97 -24.5t40 -63.5q0 -72 -78 -125t-158 -53q-14 0 -39 4q-4 -16 -4 -23q0 -51 60 -65l-47 -54q-146 50 -146 162.5zM1169 1288.5q0 112.5 79 177t196 64.5q57 0 97 -24.5t40 -63.5q0 -72 -78 -125t-157 -53q-14 0 -39 4 q-4 -16 -4 -23q0 -51 59 -65l-47 -54q-146 50 -146 162.5z" />
<glyph unicode="&#x201d;" horiz-adv-x="1073" d="M748 1360q0 70 82.5 120t175.5 50q57 0 97 -24.5t40 -73.5q0 -90 -111 -179q-106 -80 -250 -114l-14 45q113 33 139 90q-29 -4 -41 -4q-55 0 -86.5 23.5t-31.5 66.5zM1186 1360q0 70 83 120t175 50q57 0 97 -24.5t40 -73.5q0 -90 -111 -179q-106 -80 -249 -114l-15 45 q113 33 140 90q-29 -4 -41 -4q-55 0 -87 23.5t-32 66.5z" />
<glyph unicode="&#x201e;" horiz-adv-x="1073" d="M356 86q0 70 83 120t175 50q57 0 97.5 -24.5t40.5 -73.5q0 -90 -111 -178q-100 -78 -250 -115l-14 45q111 29 139 90q-29 -4 -41 -4q-119 0 -119 90zM795 86q0 70 83 120t175 50q57 0 97 -24.5t40 -73.5q0 -90 -111 -178q-100 -78 -250 -115l-14 45q111 29 139 90 q-29 -4 -41 -4q-118 0 -118 90z" />
<glyph unicode="&#x2022;" d="M627 725q0 135 79.5 233.5t184.5 98.5q96 0 155.5 -80t59.5 -199v-18q-8 -123 -87 -209t-179 -86q-94 0 -153.5 73.5t-59.5 186.5z" />
<glyph unicode="&#x2026;" horiz-adv-x="1986" d="M356 84q0 70 83 121t173 51q55 0 96.5 -24.5t41.5 -63.5q0 -74 -86 -124t-170 -50q-57 0 -97.5 24.5t-40.5 65.5zM1032 84q0 70 83 121t173 51q55 0 96 -24.5t41 -63.5q0 -74 -86 -124t-170 -50q-57 0 -97 24.5t-40 65.5zM1708 84q0 70 83 121t173 51q55 0 96 -24.5 t41 -63.5q0 -74 -86 -124t-170 -50q-57 0 -97 24.5t-40 65.5z" />
<glyph unicode="&#x202f;" horiz-adv-x="409" />
<glyph unicode="&#x2039;" horiz-adv-x="657" d="M477 633l62 131l362 156l33 -123l-295 -109l172 -110l-70 -115z" />
<glyph unicode="&#x203a;" horiz-adv-x="657" d="M457 612l295 107l-174 110l71 117l262 -172l-59 -131l-363 -156z" />
<glyph unicode="&#x205f;" horiz-adv-x="512" />
<glyph unicode="&#x20ac;" d="M391 709l76 110h59l37 82h-96l76 111h78q94 158 221 233q98 59 323 60q190 0 279 -13l-160 -164q-55 25 -178 25q-59 0 -100 -30.5t-86 -110.5h249l-110 -111h-195l-33 -82h150l-111 -110h-84q-31 -88 -30 -125q0 -35 35 -35q98 0 145 8t98 35l78 -88q-113 -86 -379 -86 q-131 0 -198.5 27.5t-67.5 107.5q0 82 20 156h-96z" />
<glyph unicode="&#x2122;" horiz-adv-x="1660" d="M741 1362q0 10 7 24l26 113q12 27 31 27q23 0 91.5 -5t129.5 -5q82 0 150.5 5t70.5 5q20 0 25 -23l10 -104q4 -16 4 -33q0 -25 -22 -25q-12 0 -28.5 32t-44.5 63.5t-67 31.5h-32q-16 0 -23 -20l-43 -500q0 -18 40 -26.5t40 -26.5q0 -31 -21 -31q-2 0 -19 2t-43 3t-48 1 q-18 0 -36.5 -1t-32 -1t-24 -1t-16.5 -3h-6q-18 0 -18 27q4 25 46 32t44 25l43 500v6q0 14 -12 14h-43q-45 0 -79 -31.5t-53.5 -63.5t-29.5 -32q-13 1 -17 21zM1270 891q2 18 37.5 31.5t42.5 40.5l80 464q0 25 -37 34t-37 30q0 31 20 31q4 0 24.5 -3t33.5 -3q49 0 79 8 l123 -492l205 490q43 -6 74 -6q10 0 30.5 3t28.5 3q16 0 17 -21q0 -27 -39 -37t-45 -37l-9 -479q0 -10 35 -23.5t35 -29.5q0 -31 -20 -31q-6 0 -41 3t-64 3q-31 0 -64.5 -3t-37.5 -3q-18 0 -19 27q2 18 39 30.5t43 36.5l19 394l-201 -473q-12 -18 -23 -19q-14 0 -20 19 l-117 442l-61 -365q0 -14 36 -29.5t36 -31.5q0 -31 -19 -31q-6 0 -35.5 3t-56.5 3q-25 0 -47.5 -3t-26.5 -3q-18 0 -18 27z" />
<glyph unicode="&#xe000;" horiz-adv-x="870" d="M0 870h870v-870h-870v870z" />
<glyph unicode="&#xfb01;" horiz-adv-x="1384" d="M1035 127q0 49 26 102l305 684l258 -141l-217 -489q-10 -25 -10 -37q0 -31 35 -31q68 0 172 77t135 140l64 -80q-55 -123 -255 -240.5t-364 -117.5q-66 0 -107.5 36t-41.5 97zM1442 1122q0 66 81 120t175 54q55 0 96 -25.5t41 -66.5q0 -74 -84 -122t-172 -48 q-55 0 -96 24.5t-41 63.5zM90 -221q0 61 35 143l614 1376q57 127 163 179.5t280 52.5q193 0 192 -129q0 -39 -22 -96l-260 -580q-51 -113 -139.5 -214t-164.5 -134q25 -113 119 -113q51 0 123 42t121 126l61 -80q-51 -104 -149 -165.5t-205 -61.5q-57 0 -80 8q6 -12 6 -33 q0 -63 -41 -157l-59 -131q-88 -195 -367 -195q-227 0 -227 162zM418 -197q0 -18 22 -18q47 0 68 43l90 199q35 84 35 143q0 51 -31 59l-170 -379q-14 -31 -14 -47zM735 524q96 35 174 201l267 594q4 8 4 20q0 25 -35 25q-33 0 -49 -33z" />
<glyph unicode="&#xfb02;" horiz-adv-x="1533" d="M1065 193q0 55 23 102l434 975q61 137 168.5 198.5t275.5 61.5q201 0 201 -131q0 -45 -41 -139l-121 -267q-135 -305 -456 -428l-123 -274q-12 -25 -13 -43q0 -23 36 -37t77 -14q94 0 204.5 74.5t158.5 160.5l63 -80q-66 -137 -257 -247.5t-400 -110.5q-102 0 -166 55.5 t-64 143.5zM1628 754q98 35 193 239l123 264q27 63 27 78q0 20 -31 21q-39 0 -56 -37zM90 -221q0 61 35 143l614 1376q57 127 163 179.5t280 52.5q193 0 192 -129q0 -39 -22 -96l-260 -580q-51 -113 -139.5 -214t-164.5 -134q25 -113 119 -113q51 0 123 42t121 126l61 -80 q-51 -104 -149 -165.5t-205 -61.5q-57 0 -80 8q6 -12 6 -33q0 -63 -41 -157l-59 -131q-88 -195 -367 -195q-227 0 -227 162zM418 -197q0 -18 22 -18q47 0 68 43l90 199q35 84 35 143q0 51 -31 59l-170 -379q-14 -31 -14 -47zM735 524q96 35 174 201l267 594q4 8 4 20 q0 25 -35 25q-33 0 -49 -33z" />
<glyph unicode="&#xfb03;" horiz-adv-x="2181" d="M1831 127q0 49 26 102l305 684l258 -141l-217 -489q-10 -25 -10 -37q0 -31 35 -31q68 0 172 77t135 140l64 -80q-55 -123 -255 -240.5t-364 -117.5q-66 0 -107.5 36t-41.5 97zM2238 1122q0 66 81 120t175 54q55 0 96 -25.5t41 -66.5q0 -74 -84 -122t-172 -48 q-55 0 -96 24.5t-41 63.5zM887 -221q0 61 35 143l614 1376q57 127 163 179.5t280 52.5q193 0 192 -129q0 -39 -22 -96l-260 -580q-51 -113 -139.5 -214t-164.5 -134q25 -113 119 -113q51 0 123 42t121 126l61 -80q-51 -104 -149 -165.5t-205 -61.5q-57 0 -80 8q6 -12 6 -33 q0 -63 -41 -157l-59 -131q-88 -195 -367 -195q-227 0 -227 162zM1215 -197q0 -18 22 -18q47 0 68 43l90 199q35 84 35 143q0 51 -31 59l-170 -379q-14 -31 -14 -47zM1532 524q96 35 174 201l267 594q4 8 4 20q0 25 -35 25q-33 0 -49 -33zM90 -221q0 61 35 143l614 1376 q57 127 163 179.5t280 52.5q193 0 192 -129q0 -39 -22 -96l-260 -580q-51 -113 -139.5 -214t-164.5 -134q25 -113 119 -113q51 0 123 42t121 126l61 -80q-51 -104 -149 -165.5t-205 -61.5q-57 0 -80 8q6 -12 6 -33q0 -63 -41 -157l-59 -131q-88 -195 -367 -195 q-227 0 -227 162zM418 -197q0 -18 22 -18q47 0 68 43l90 199q35 84 35 143q0 51 -31 59l-170 -379q-14 -31 -14 -47zM735 524q96 35 174 201l267 594q4 8 4 20q0 25 -35 25q-33 0 -49 -33z" />
<glyph unicode="&#xfb04;" horiz-adv-x="2330" d="M1861 193q0 55 23 102l434 975q61 137 168.5 198.5t275.5 61.5q201 0 201 -131q0 -45 -41 -139l-121 -267q-135 -305 -456 -428l-123 -274q-12 -25 -13 -43q0 -23 36 -37t77 -14q94 0 204.5 74.5t158.5 160.5l63 -80q-66 -137 -257 -247.5t-400 -110.5q-102 0 -166 55.5 t-64 143.5zM2424 754q98 35 193 239l123 264q27 63 27 78q0 20 -31 21q-39 0 -56 -37zM887 -221q0 61 35 143l614 1376q57 127 163 179.5t280 52.5q193 0 192 -129q0 -39 -22 -96l-260 -580q-51 -113 -139.5 -214t-164.5 -134q25 -113 119 -113q51 0 123 42t121 126l61 -80 q-51 -104 -149 -165.5t-205 -61.5q-57 0 -80 8q6 -12 6 -33q0 -63 -41 -157l-59 -131q-88 -195 -367 -195q-227 0 -227 162zM1215 -197q0 -18 22 -18q47 0 68 43l90 199q35 84 35 143q0 51 -31 59l-170 -379q-14 -31 -14 -47zM1532 524q96 35 174 201l267 594q4 8 4 20 q0 25 -35 25q-33 0 -49 -33zM90 -221q0 61 35 143l614 1376q57 127 163 179.5t280 52.5q193 0 192 -129q0 -39 -22 -96l-260 -580q-51 -113 -139.5 -214t-164.5 -134q25 -113 119 -113q51 0 123 42t121 126l61 -80q-51 -104 -149 -165.5t-205 -61.5q-57 0 -80 8q6 -12 6 -33 q0 -63 -41 -157l-59 -131q-88 -195 -367 -195q-227 0 -227 162zM418 -197q0 -18 22 -18q47 0 68 43l90 199q35 84 35 143q0 51 -31 59l-170 -379q-14 -31 -14 -47zM735 524q96 35 174 201l267 594q4 8 4 20q0 25 -35 25q-33 0 -49 -33z" />
</font>
</defs>
</svg>
